<svg width="75" height="78" viewBox="0 0 75 78" fill="none" xmlns="http://www.w3.org/2000/svg"><path fill="#fff" d="M0 0h75v78H0z"/><path d="M30.668 68h-1.1333l-2.4224-3.749-.7466.6123V68h-.999v-7.8525h.999v3.9262l.6499-.9023 2.4278-3.0239h1.1225l-2.793 3.4213L30.668 68zm7.2563-3.937c0 .6051-.0734 1.1566-.2202 1.6543-.1432.4977-.3581.9238-.6445 1.2783-.2865.3545-.6428.6284-1.0689.8218-.4225.1933-.9113.29-1.4663.29-.5836 0-1.0903-.0967-1.52-.29-.4261-.1934-.7806-.4673-1.0635-.8218-.2793-.3545-.487-.7806-.623-1.2783-.1361-.5013-.2041-1.0563-.2041-1.6651 0-.6087.068-1.1601.2041-1.6543.136-.4977.3455-.922.6284-1.2729.2829-.3509.6391-.6213 1.0688-.811.4297-.1934.9364-.2901 1.5201-.2901.555 0 1.0419.0967 1.4609.2901.4225.1897.777.4619 1.0635.8164.2864.3509.5013.7752.6445 1.2729.1468.4942.2202 1.0474.2202 1.6597zm-5.7524 0c0 .4905.0465.9328.1396 1.3266.0931.3903.2346.7234.4243.9991.1934.2721.4369.4816.7305.6284.2972.1432.6499.2148 1.0581.2148s.7591-.0716 1.0527-.2148c.2972-.1468.5407-.3563.7305-.6284.1934-.2757.3348-.6088.4243-.9991.0896-.3938.1343-.8361.1343-1.3266 0-.4942-.0447-.9364-.1343-1.3267-.0895-.3903-.2291-.7197-.4189-.9883-.1898-.2721-.4315-.4798-.7251-.623-.2936-.1468-.6445-.2202-1.0527-.2202s-.7609.0734-1.0581.2202c-.2972.1432-.5425.3509-.7359.623-.1933.2686-.3366.598-.4297.9883-.0931.3903-.1396.8325-.1396 1.3267zm8.5024.6929V68h-.999v-7.8525h1.9121c.9525 0 1.6561.1844 2.1108.5532.4548.3688.6822.9274.6822 1.6758 0 .3115-.0448.5836-.1343.8164-.0859.2327-.2023.4332-.3491.6015-.1433.1647-.308.3026-.4942.4136-.1862.111-.3777.2023-.5747.2739L44.9658 68h-1.1762l-1.8853-3.2441h-1.23zm0-.8487h.8809c.3222 0 .5962-.0304.8218-.0913.2255-.0644.4099-.1575.5532-.2793.1468-.1253.2524-.2793.3169-.4619.068-.1862.102-.4028.102-.6499 0-.2578-.0376-.4762-.1128-.6553-.0716-.179-.1826-.3258-.333-.4404-.1468-.1146-.3348-.1969-.5639-.2471-.2256-.0537-.4942-.0805-.8057-.0805h-.8594v2.9057zM48.3442 68h-1.0044v-6.9717h-2.2451v-.8808h5.4893v.8808h-2.2398V68z" fill="#000"/><rect x="24" y="9" width="27" height="38.1111" rx="2" stroke="#000" stroke-width="2"/><path fill="#000" d="M27.7778 12.7778h2.77778v20.1389H27.7778zM31.9445 12.7778h1.38889v20.1389H31.9445zM42.3611 12.7778h5.55556v5.55556H42.3611z"/></svg>