<svg width="75" height="78" viewBox="0 0 75 78" fill="none" xmlns="http://www.w3.org/2000/svg"><path fill="#fff" d="M0 0h75v78H0z"/><path d="M14.603 68h-1.1333l-2.4223-3.749-.7466.6123V68h-.99904v-7.8525h.99904v3.9262l.6499-.9023 2.4277-3.0239h1.1226l-2.793 3.4213L14.603 68zm5.6665 0l-.8593-2.4331h-2.9273L15.6128 68H14.603l2.8843-7.8848h.9131L21.29 68h-1.0205zm-1.1762-3.3193l-.795-2.2774c-.0214-.0644-.0483-.1432-.0805-.2363-.0287-.0931-.0591-.1934-.0913-.3008-.0323-.1074-.0645-.2184-.0967-.333-.0322-.1182-.0627-.2327-.0913-.3437-.0251.111-.0537.2255-.086.3437-.0322.1182-.0644.2328-.0966.3438-.0323.1074-.0645.2076-.0967.3007-.0287.0896-.0537.1647-.0752.2256l-.7788 2.2774h2.2881zM25.6084 68l-2.3794-6.875h-.043c.0215.265.0394.5282.0537.7896.0144.2255.0251.4637.0323.7143.0107.2471.0161.4727.0161.6768V68h-.9238v-7.8525h1.4824l2.2129 6.4023h.0322l2.2236-6.4023h1.4825V68h-.9991v-4.7642c0-.1862.0036-.3992.0108-.6391.0071-.2399.0161-.4691.0268-.6875.0143-.2543.0269-.5121.0376-.7735h-.0429L26.4302 68h-.8218zm11.0322-5.5537c0 .3258-.0501.6391-.1504.9399-.0966.3008-.2578.5676-.4834.8003-.2256.2292-.5245.4136-.8969.5532-.3689.1361-.8254.2041-1.3697.2041h-.8056V68h-.9991v-7.8525h1.9444c.4798 0 .8934.0519 1.2407.1557.3473.1003.6338.2489.8594.4458.2256.1934.3921.4333.4995.7198.1074.2864.1611.6123.1611.9775zm-3.706 1.6489h.6928c.333 0 .6231-.0286.8702-.0859.2506-.0573.4565-.1486.6176-.2739.1647-.129.2883-.2937.3706-.4942.0824-.2041.1236-.4512.1236-.7412 0-.5085-.1468-.8844-.4405-1.1279-.2936-.2471-.7519-.3706-1.375-.3706h-.8593v3.0937zM42.4307 68l-.8594-2.4331H38.644L37.7739 68h-1.0097l2.8842-7.8848h.9131L43.4512 68h-1.0205zm-1.1763-3.3193l-.7949-2.2774c-.0215-.0644-.0484-.1432-.0806-.2363-.0286-.0931-.0591-.1934-.0913-.3008-.0322-.1074-.0645-.2184-.0967-.333-.0322-.1182-.0626-.2327-.0913-.3437-.0251.111-.0537.2255-.0859.3437-.0323.1182-.0645.2328-.0967.3438-.0322.1074-.0645.2076-.0967.3007-.0286.0896-.0537.1647-.0752.2256l-.7788 2.2774h2.2881zM50.4067 68H49.252l-3.8619-6.499h-.0429c.0215.2757.0394.5496.0537.8218.0143.2327.025.4762.0322.7304.0107.2543.0161.4834.0161.6875V68h-.9238v-7.8525h1.144l3.8457 6.4668h.0376c-.0107-.2722-.0232-.5407-.0376-.8057-.0035-.1146-.0089-.231-.0161-.3491-.0036-.1218-.0089-.2417-.0161-.3599-.0036-.1217-.0072-.2381-.0107-.3491v-4.603h.9345V68zm.9185 2.0894c-.1826 0-.342-.0126-.478-.0376-.1361-.0215-.2543-.052-.3545-.0914v-.8593c.1217.0322.2524.0573.3921.0752.1396.0215.29.0322.4511.0322.1325 0 .265-.0179.3975-.0537.1361-.0322.2578-.0931.3652-.1826.111-.0896.2006-.2131.2686-.3706.068-.1576.102-.3581.102-.6016v-7.8525h1.0044v7.7451c0 .376-.0537.7018-.1611.9775-.1038.2757-.2507.5031-.4404.6821-.1862.1827-.4118.3169-.6768.4029-.2614.0895-.5514.1343-.8701.1343zM59.6128 68h-4.0767v-7.8525h4.0767v.8808h-3.0776v2.4278h2.8735v.8701h-2.8735v2.7929h3.0776V68zm2.7339-3.2441V68h-.999v-7.8525h1.9121c.9524 0 1.6561.1844 2.1108.5532.4548.3688.6821.9274.6821 1.6758 0 .3115-.0447.5836-.1342.8164-.086.2327-.2024.4332-.3492.6015-.1432.1647-.3079.3026-.4941.4136-.1862.111-.3778.2023-.5747.2739L66.6382 68h-1.1763l-1.8852-3.2441h-1.23zm0-.8487h.8808c.3223 0 .5962-.0304.8218-.0913.2256-.0644.41-.1575.5532-.2793.1468-.1253.2525-.2793.3169-.4619.0681-.1862.1021-.4028.1021-.6499 0-.2578-.0376-.4762-.1128-.6553-.0716-.179-.1826-.3258-.333-.4404-.1468-.1146-.3348-.1969-.564-.2471-.2256-.0537-.4941-.0805-.8056-.0805h-.8594v2.9057zM47.3614 26.3338l1.8052-3.5908c.0556-.111.0826-.2337.0784-.3574-.0041-.1236-.0392-.2444-.1022-.3515-.063-.1071-.1519-.1973-.2589-.2626-.1069-.0653-.2286-.1036-.3543-.1117l-4.0667-.2587-.2633-3.9956c-.0081-.1236-.0471-.2434-.1137-.3486-.0665-.1053-.1585-.1928-.2677-.2547-.1093-.0619-.2324-.0964-.3584-.1003-.1261-.0039-.2512.0228-.3642.0778l-3.6517 1.7752-2.2615-3.3322c-.2848-.4182-.9891-.4182-1.2739 0l-2.2615 3.3322-3.6517-1.7752c-.113-.055-.2381-.0817-.3642-.0778-.126.0039-.2491.0384-.3584.1003-.1092.0619-.2012.1494-.2677.2547-.0666.1052-.1056.225-.1137.3486l-.2618 3.9956-4.0682.2572c-.1259.008-.2478.0463-.3549.1117-.1071.0654-.1962.1557-.2592.2631-.063.1073-.0981.2283-.1021.3521-.004.1238.0232.2467.0792.3578l1.8052 3.5893-3.3899 2.222c-.1045.0689-.1902.162-.2494.2712-.0592.1091-.0902.2309-.0902.3546 0 .1237.031.2454.0902.3546.0592.1091.1449.2022.2494.2712l3.3915 2.2219-1.8068 3.5894c-.0564.1108-.084.2337-.0802.3577.0038.1239.0388.245.1019.3523.0631.1074.1524.1977.2598.2628.1074.0651.2295.103.3555.1103l4.0667.2572.2618 3.9971c.0081.1236.0471.2434.1137.3487.0665.1052.1585.1927.2677.2546.1092.062.2324.0964.3584.1003.1261.004.2511-.0228.3641-.0778l3.6533-1.7736 2.2615 3.3306c.0702.1027.165.1868.276.245.1111.0582.2351.0887.361.0887.1258 0 .2498-.0305.3609-.0887s.2059-.1423.276-.245l2.2615-3.3306 3.6533 1.7736c.113.055.238.0818.3641.0778.1261-.0039.2492-.0383.3584-.1003.1092-.0619.2012-.1494.2678-.2546.0665-.1053.1055-.2251.1136-.3487l.2618-3.9956 4.0667-.2587c.1259-.0079.2478-.0463.3549-.1117.1072-.0653.1962-.1557.2592-.263.0631-.1074.0981-.2283.1021-.3522.004-.1238-.0232-.2467-.0792-.3577l-1.8052-3.5879 3.3899-2.2234c.1045-.069.1902-.1621.2494-.2712.0592-.1092.0902-.231.0902-.3546 0-.1237-.031-.2455-.0902-.3546-.0592-.1092-.1449-.2023-.2494-.2712l-3.3899-2.219z" fill="#000"/><circle cx="48.1818" cy="17.8182" r="5.31818" fill="#F8512D" stroke="#fff"/></svg>