<svg width="356" height="69" viewBox="0 0 356 69" fill="none" xmlns="http://www.w3.org/2000/svg"><rect width="356" height="57" rx="28.5" fill="#fff"/><path d="M29.3077 26.5769c0-1.8529-.6586-3.438-1.9757-4.7551-1.3171-1.3171-2.9021-1.9756-4.7551-1.9756-1.8529 0-3.438.6585-4.7551 1.9756-1.3171 1.3171-1.9756 2.9022-1.9756 4.7551 0 1.853.6585 3.438 1.9756 4.7551 1.3171 1.3171 2.9022 1.9757 4.7551 1.9757 1.853 0 3.438-.6586 4.7551-1.9757 1.3171-1.3171 1.9757-2.9021 1.9757-4.7551zM37 39.0769c0 .5209-.1903.9716-.5709 1.3522-.3806.3806-.8313.5709-1.3522.5709-.5408 0-.9916-.1903-1.3521-.5709l-5.1533-5.1382c-1.7929 1.242-3.7911 1.8629-5.9946 1.8629-1.4323 0-2.802-.2779-4.1091-.8338-1.307-.5559-2.4338-1.3071-3.3804-2.2536-.9465-.9465-1.6977-2.0733-2.2536-3.3804C12.2779 29.3789 12 28.0092 12 26.5769c0-1.4323.2779-2.802.8338-4.1091.5559-1.307 1.3071-2.4338 2.2536-3.3804.9466-.9465 2.0734-1.6977 3.3804-2.2536C19.7749 16.2779 21.1446 16 22.5769 16c1.4323 0 2.802.2779 4.1091.8338 1.3071.5559 2.4339 1.3071 3.3804 2.2536.9465.9466 1.6977 2.0734 2.2536 3.3804.5559 1.3071.8338 2.6768.8338 4.1091 0 2.2035-.6209 4.2017-1.8629 5.9946l5.1532 5.1533c.3706.3706.5559.8213.5559 1.3521zM63.1416 33h-1.3623v-4.9951h-4.8779V33h-1.3623V22.292h1.3623v4.5117h4.8779V22.292h1.3623V33zm4.0649 0h-1.333v-8.042h1.333V33zM65.771 22.7827c0-.293.0732-.5054.2197-.6372.1514-.1318.3369-.1977.5567-.1977.1074 0 .2075.017.3003.0512.0976.0293.1806.0781.249.1465.0732.0684.1294.1563.1684.2637.044.1025.066.227.066.3735 0 .2832-.0782.4956-.2344.6372-.1514.1367-.3345.2051-.5493.2051-.2198 0-.4053-.0684-.5567-.2051-.1465-.1367-.2197-.3491-.2197-.6372zm6.416 9.2725c.0879 0 .1856-.0049.293-.0147.1123-.0097.2197-.0219.3222-.0366.1026-.0146.1954-.0317.2784-.0513.0879-.0195.1538-.0366.1977-.0512v1.0107c-.0635.0293-.144.0586-.2417.0879-.0976.0293-.2051.0537-.3222.0732-.1172.0245-.2393.0415-.3663.0513-.1269.0147-.2514.022-.3735.022-.3027 0-.5835-.0391-.8423-.1172-.2588-.0781-.4834-.2124-.6738-.4028-.1856-.1905-.332-.4468-.4395-.7691-.1074-.3271-.1611-.7373-.1611-1.2304v-4.6656h-1.1352v-.5932l1.1352-.5713.5713-1.6846h.769v1.8457h2.0215v1.0034h-2.0215v4.6656c0 .4736.0757.83.2271 1.0693.1562.2392.4101.3589.7617.3589zm5.2295 0c.0879 0 .1856-.0049.293-.0147.1123-.0097.2197-.0219.3222-.0366.1026-.0146.1954-.0317.2784-.0513.0878-.0195.1538-.0366.1977-.0512v1.0107c-.0635.0293-.144.0586-.2417.0879-.0976.0293-.2051.0537-.3223.0732-.1171.0245-.2392.0415-.3662.0513-.1269.0147-.2514.022-.3735.022-.3027 0-.5835-.0391-.8423-.1172-.2588-.0781-.4834-.2124-.6738-.4028-.1856-.1905-.332-.4468-.4395-.7691-.1074-.3271-.1611-.7373-.1611-1.2304v-4.6656h-1.1353v-.5932l1.1353-.5713.5713-1.6846h.769v1.8457h2.0215v1.0034h-2.0215v4.6656c0 .4736.0757.83.2271 1.0693.1562.2392.4101.3589.7617.3589zM84.6016 33l-.271-1.1133h-.0586c-.1612.2197-.3223.4102-.4834.5713-.1612.1563-.3369.2857-.5274.3882-.1904.1025-.4028.1782-.6372.227-.2344.0489-.5053.0733-.813.0733-.3369 0-.6469-.0488-.9301-.1465-.2832-.0928-.5298-.2368-.7398-.4321-.2051-.2002-.3662-.4492-.4834-.7471-.1172-.3027-.1758-.6592-.1758-1.0693 0-.8008.2808-1.4161.8423-1.8457.5664-.4297 1.4258-.6641 2.5781-.7032l1.3477-.0512v-.5054c0-.3272-.0366-.6006-.1099-.8203-.0683-.2197-.1709-.3955-.3076-.5274-.1318-.1367-.2978-.2343-.498-.2929-.1953-.0586-.4199-.0879-.6739-.0879-.4052 0-.7836.0586-1.1352.1758-.3467.1171-.6812.2588-1.0034.4248l-.4688-1.0035c.3614-.1953.7642-.3613 1.2085-.498.4444-.1367.9107-.2051 1.3989-.2051.4981 0 .9278.0513 1.2891.1538.3662.0977.6665.2564.9009.4761.2392.2148.4175.4907.5347.8276.1171.337.1757.7447.1757 1.2232V33h-.9594zm-2.4463-.9302c.2978 0 .5737-.0464.8276-.1391.2539-.0928.4736-.232.6592-.4175.1855-.1904.3296-.4273.4321-.7105.1074-.2881.1612-.625.1612-1.0107v-.7251l-1.0474.0513c-.4395.0195-.8081.0683-1.106.1464-.2978.0782-.5371.188-.7177.3296-.1758.1368-.3028.3052-.3809.5054-.0781.1953-.1172.4175-.1172.6665 0 .4492.1172.7788.3516.9888.2392.2099.5517.3149.9375.3149zm14.7436-.1465h-.0586c-.1074.1661-.2343.3247-.3808.4761-.1416.1465-.3076.2759-.4981.3882-.1855.1123-.3955.2002-.6299.2637-.2343.0634-.498.0952-.791.0952-.4541 0-.8691-.0879-1.2451-.2637-.376-.1758-.6982-.437-.9668-.7837-.2685-.3515-.4761-.7861-.6225-1.3037-.1465-.5176-.2198-1.1182-.2198-1.8017 0-.6885.0733-1.2916.2198-1.8091.1464-.5225.354-.9595.6225-1.3111.2686-.3515.5908-.6152.9668-.791.376-.1806.791-.271 1.2451-.271.2881 0 .5493.0318.7837.0952.2344.0635.4444.149.6299.2564.1904.1074.3589.2319.5054.3735.1465.1416.2734.2905.3808.4468h.0879c-.0146-.166-.0293-.3247-.0439-.4761-.0098-.1269-.0196-.2563-.0293-.3882-.0098-.1367-.0147-.2441-.0147-.3222v-3.1934h1.333V33h-1.0766l-.1978-1.0767zm-2.102.1172c.3711 0 .6836-.0561.9375-.1684.2588-.1123.4663-.2832.6225-.5127.1612-.2295.2784-.5152.3516-.857.0781-.3466.1221-.7495.1318-1.2085v-.3002c0-.4932-.0341-.9302-.1025-1.3111-.0635-.3857-.1758-.708-.3369-.9668-.1563-.2637-.3662-.4614-.6299-.5932-.2637-.1368-.5933-.2051-.9888-.2051-.6592 0-1.145.2661-1.4575.7983-.3076.5322-.4614 1.2964-.4614 2.2925 0 1.0205.1538 1.7822.4614 2.2852.3125.498.8032.747 1.4722.747zM102.055 33h-1.333v-8.042h1.333V33zm-1.435-10.2173c0-.293.073-.5054.219-.6372.152-.1318.337-.1977.557-.1977.107 0 .208.017.3.0512.098.0293.181.0781.249.1465.074.0684.13.1563.169.2637.044.1025.066.227.066.3735 0 .2832-.078.4956-.235.6372-.151.1367-.334.2051-.549.2051-.22 0-.405-.0684-.557-.2051-.146-.1367-.219-.3491-.219-.6372zM109.628 33v-5.1782c0-.6348-.129-1.1109-.388-1.4282-.254-.3174-.654-.4761-1.201-.4761-.395 0-.727.0635-.996.1904-.269.127-.486.315-.652.564-.161.249-.278.5542-.351.9155-.069.3613-.103.7764-.103 1.2451V33h-1.333v-8.042h1.084l.19 1.084h.074c.122-.21.266-.3906.432-.542.171-.1562.356-.2856.556-.3882.201-.1025.413-.1782.638-.227.224-.0489.454-.0733.688-.0733.894 0 1.565.2344 2.014.7031.454.4639.681 1.2085.681 2.2339V33h-1.333zm12.518-2.2046c0 .3906-.071.7324-.213 1.0254-.141.293-.347.5396-.615.7397-.264.1954-.584.3418-.96.4395-.376.0977-.798.1465-1.267.1465-.532 0-.988-.044-1.369-.1319-.381-.083-.716-.2075-1.004-.3735v-1.2158c.152.0781.32.1562.506.2344.185.0732.38.1391.586.1977.205.0586.415.1074.629.1465.22.0342.437.0513.652.0513.318 0 .586-.0269.806-.0806.225-.0537.405-.1294.542-.227.142-.1026.244-.2247.308-.3663.063-.1464.095-.3076.095-.4834 0-.1513-.025-.288-.073-.4101-.049-.1221-.14-.2417-.271-.3589-.127-.1221-.303-.2441-.528-.3662-.224-.1221-.512-.2588-.864-.4102-.352-.1513-.669-.3003-.952-.4467-.279-.1465-.515-.3101-.711-.4908-.195-.1806-.346-.3881-.454-.6225-.102-.2393-.154-.5225-.154-.8496 0-.3418.066-.6446.198-.9082.137-.2686.327-.4932.571-.6739.245-.1806.538-.3173.879-.4101.342-.0928.723-.1392 1.143-.1392.474 0 .906.0513 1.296.1538.396.1026.769.2368 1.121.4029l-.461 1.0766c-.318-.1416-.645-.2636-.982-.3662-.332-.1074-.671-.1611-1.018-.1611-.498 0-.867.083-1.106.249-.239.1611-.359.3931-.359.6958 0 .1709.027.3198.081.4468.058.1269.156.2466.293.3589.136.1123.32.227.549.3442.23.1123.515.2393.857.3809.352.1465.664.2929.937.4394.279.1465.516.3125.711.4981.195.1806.344.3882.447.6225.102.2344.154.5152.154.8423zm4.387 1.2598c.088 0 .185-.0049.293-.0147.112-.0097.219-.0219.322-.0366.102-.0146.195-.0317.278-.0513.088-.0195.154-.0366.198-.0512v1.0107c-.063.0293-.144.0586-.242.0879-.097.0293-.205.0537-.322.0732-.117.0245-.239.0415-.366.0513-.127.0147-.252.022-.374.022-.302 0-.583-.0391-.842-.1172s-.483-.2124-.674-.4028c-.185-.1905-.332-.4468-.439-.7691-.108-.3271-.161-.7373-.161-1.2304v-4.6656h-1.136v-.5932l1.136-.5713.571-1.6846h.769v1.8457h2.021v1.0034h-2.021v4.6656c0 .4736.076.83.227 1.0693.156.2392.41.3589.762.3589zm7.859.9448l-.198-1.0767h-.073c-.122.21-.269.3931-.44.5494-.166.1513-.349.2783-.549.3808-.2.0977-.413.1709-.637.2197-.225.0489-.454.0733-.689.0733-.444 0-.835-.0562-1.172-.1685-.337-.1123-.617-.2881-.842-.5273-.225-.2393-.396-.5445-.513-.9155-.112-.3711-.168-.813-.168-1.3257V24.958h1.333v5.1782c0 .6348.129 1.1109.388 1.4283.259.3173.659.476 1.201.476.396 0 .728-.0634.996-.1904.269-.127.484-.3125.645-.5566.166-.2491.283-.5542.351-.9156.074-.3613.11-.7763.11-1.2451V24.958h1.333V33h-1.076zm8.591-1.0767h-.059c-.107.1661-.234.3247-.381.4761-.141.1465-.307.2759-.498.3882-.185.1123-.395.2002-.629.2637-.235.0634-.499.0952-.791.0952-.455 0-.87-.0879-1.246-.2637-.376-.1758-.698-.437-.966-.7837-.269-.3515-.476-.7861-.623-1.3037-.146-.5176-.22-1.1182-.22-1.8017 0-.6885.074-1.2916.22-1.8091.147-.5225.354-.9595.623-1.3111.268-.3515.59-.6152.966-.791.376-.1806.791-.271 1.246-.271.288 0 .549.0318.783.0952.235.0635.445.149.63.2564.191.1074.359.2319.505.3735.147.1416.274.2905.381.4468h.088c-.014-.166-.029-.3247-.044-.4761-.01-.1269-.019-.2563-.029-.3882-.01-.1367-.015-.2441-.015-.3222v-3.1934h1.333V33h-1.076l-.198-1.0767zm-2.102.1172c.371 0 .683-.0561.937-.1684.259-.1123.467-.2832.623-.5127.161-.2295.278-.5152.351-.857.079-.3466.123-.7495.132-1.2085v-.3002c0-.4932-.034-.9302-.102-1.3111-.064-.3857-.176-.708-.337-.9668-.156-.2637-.366-.4614-.63-.5932-.264-.1368-.593-.2051-.989-.2051-.659 0-1.145.2661-1.457.7983-.308.5322-.462 1.2964-.462 2.2925 0 1.0205.154 1.7822.462 2.2852.312.498.803.747 1.472.747zm9.104 1.106c-.537 0-1.028-.0903-1.472-.271-.445-.1807-.828-.4443-1.15-.791-.318-.3467-.564-.7764-.74-1.2891-.176-.5127-.264-1.0986-.264-1.7578 0-.6641.081-1.2573.242-1.7798.161-.5224.388-.9643.681-1.3257.293-.3662.642-.6445 1.048-.8349.41-.1905.861-.2857 1.355-.2857.483 0 .918.0879 1.303.2637.386.1709.713.415.982.7324.268.3125.473.6909.615 1.1353.146.4394.22.9277.22 1.4648v.8277h-5.069c.025.9423.222 1.6357.594 2.08.376.4444.932.6665 1.67.6665.249 0 .478-.0122.688-.0366.215-.0244.42-.0586.615-.1025.2-.0489.393-.1074.579-.1758.185-.0732.373-.1538.564-.2417v1.1865c-.196.0928-.388.1734-.579.2417-.185.0684-.378.1245-.578.1685-.196.0439-.401.0757-.616.0952-.21.0195-.439.0293-.688.0293zm-.33-7.229c-.556 0-.998.1904-1.325.5713-.323.3808-.511.935-.564 1.6626h3.603c0-.3321-.034-.6348-.102-.9082-.064-.2784-.166-.5152-.308-.7105-.137-.1953-.313-.3467-.527-.4541-.215-.1074-.474-.1611-.777-.1611zM159.858 33v-5.1782c0-.6348-.129-1.1109-.388-1.4282-.254-.3174-.655-.4761-1.201-.4761-.396 0-.728.0635-.997.1904-.268.127-.485.315-.651.564-.162.249-.279.5542-.352.9155-.068.3613-.102.7764-.102 1.2451V33h-1.334v-8.042h1.084l.191 1.084h.073c.122-.21.266-.3906.432-.542.171-.1562.357-.2856.557-.3882.2-.1025.413-.1782.637-.227.225-.0489.454-.0733.689-.0733.893 0 1.565.2344 2.014.7031.454.4639.681 1.2085.681 2.2339V33h-1.333zm6.24-.9448c.088 0 .186-.0049.293-.0147.112-.0097.22-.0219.322-.0366.103-.0146.196-.0317.279-.0513.088-.0195.154-.0366.197-.0512v1.0107c-.063.0293-.144.0586-.241.0879-.098.0293-.205.0537-.323.0732-.117.0245-.239.0415-.366.0513-.127.0147-.251.022-.373.022-.303 0-.584-.0391-.843-.1172-.258-.0781-.483-.2124-.673-.4028-.186-.1905-.332-.4468-.44-.7691-.107-.3271-.161-.7373-.161-1.2304v-4.6656h-1.135v-.5932l1.135-.5713.571-1.6846h.769v1.8457h2.022v1.0034h-2.022v4.6656c0 .4736.076.83.227 1.0693.157.2392.411.3589.762.3589zm6.131-7.2437c.141 0 .3.0073.476.022.175.0098.327.0269.454.0513l-.176 1.2304c-.137-.0244-.278-.0439-.425-.0586-.141-.0195-.276-.0293-.403-.0293-.307 0-.588.0635-.842.1905-.254.122-.474.3003-.659.5346-.181.2295-.322.5079-.425.835-.098.3223-.146.6812-.146 1.0767V33h-1.333v-8.042h1.083l.162 1.4722h.058c.122-.21.252-.4126.388-.6079.142-.1953.298-.3662.469-.5127.176-.1514.371-.271.586-.3589.215-.0928.459-.1392.733-.1392zM179.128 33l-.271-1.1133h-.059c-.161.2197-.322.4102-.483.5713-.161.1563-.337.2857-.527.3882-.191.1025-.403.1782-.638.227-.234.0489-.505.0733-.813.0733-.337 0-.647-.0488-.93-.1465-.283-.0928-.53-.2368-.74-.4321-.205-.2002-.366-.4492-.483-.7471-.117-.3027-.176-.6592-.176-1.0693 0-.8008.281-1.4161.843-1.8457.566-.4297 1.425-.6641 2.578-.7032l1.347-.0512v-.5054c0-.3272-.036-.6006-.109-.8203-.069-.2197-.171-.3955-.308-.5274-.132-.1367-.298-.2343-.498-.2929-.195-.0586-.42-.0879-.674-.0879-.405 0-.784.0586-1.135.1758-.347.1171-.681.2588-1.004.4248l-.468-1.0035c.361-.1953.764-.3613 1.208-.498.444-.1367.911-.2051 1.399-.2051.498 0 .928.0513 1.289.1538.366.0977.667.2564.901.4761.239.2148.417.4907.535.8276.117.337.175.7447.175 1.2232V33h-.959zm-2.446-.9302c.297 0 .573-.0464.827-.1391.254-.0928.474-.232.659-.4175.186-.1904.33-.4273.433-.7105.107-.2881.161-.625.161-1.0107v-.7251l-1.048.0513c-.439.0195-.808.0683-1.106.1464-.297.0782-.537.188-.717.3296-.176.1368-.303.3052-.381.5054-.078.1953-.117.4175-.117.6665 0 .4492.117.7788.351.9888.239.2099.552.3149.938.3149zm9.514-7.2583c.459 0 .876.0879 1.252.2637.376.1758.696.4394.96.791.268.3467.476.7788.622 1.2964.147.5176.22 1.1182.22 1.8018 0 .6884-.073 1.2939-.22 1.8164-.146.5175-.354.9521-.622 1.3037-.264.3515-.584.6176-.96.7983-.376.1758-.793.2637-1.252.2637-.288 0-.55-.0318-.784-.0952-.234-.0635-.447-.1465-.637-.2491-.186-.1074-.352-.2319-.498-.3735-.142-.1416-.269-.2905-.381-.4468h-.088L183.537 33h-.974V21.6035h1.333v2.7539c0 .1709-.002.354-.007.5493-.005.1905-.013.3687-.022.5347-.01.1953-.02.3857-.03.5713h.059c.112-.1709.239-.3296.381-.4761.141-.1465.305-.2734.491-.3808.19-.1075.402-.1905.637-.2491.234-.0634.498-.0952.791-.0952zm-.257 1.106c-.39 0-.717.0635-.981.1904-.259.1221-.469.3101-.63.564-.156.2539-.268.5713-.337.9521-.063.3809-.095.8277-.095 1.3404 0 .4931.032.9326.095 1.3183.069.3809.181.7031.337.9668.161.2588.374.4566.637.5933.264.1318.594.1977.989.1977.659 0 1.143-.2661 1.45-.7983.313-.5322.469-1.2964.469-2.2925 0-1.0156-.156-1.7749-.469-2.2778-.307-.503-.796-.7544-1.465-.7544zm9.046-1.106c.459 0 .876.0879 1.252.2637.376.1758.696.4394.96.791.268.3467.476.7788.622 1.2964.147.5176.22 1.1182.22 1.8018 0 .6884-.073 1.2939-.22 1.8164-.146.5175-.354.9521-.622 1.3037-.264.3515-.584.6176-.96.7983-.376.1758-.793.2637-1.252.2637-.288 0-.549-.0318-.784-.0952-.234-.0635-.447-.1465-.637-.2491-.186-.1074-.352-.2319-.498-.3735-.142-.1416-.269-.2905-.381-.4468h-.088L192.326 33h-.974V21.6035h1.333v2.7539c0 .1709-.002.354-.007.5493-.005.1905-.012.3687-.022.5347-.01.1953-.02.3857-.03.5713h.059c.112-.1709.239-.3296.381-.4761.142-.1465.305-.2734.491-.3808.19-.1075.402-.1905.637-.2491.234-.0634.498-.0952.791-.0952zm-.256 1.106c-.391 0-.718.0635-.982.1904-.259.1221-.469.3101-.63.564-.156.2539-.268.5713-.337.9521-.063.3809-.095.8277-.095 1.3404 0 .4931.032.9326.095 1.3183.069.3809.181.7031.337.9668.161.2588.374.4566.637.5933.264.1318.594.1977.989.1977.659 0 1.143-.2661 1.45-.7983.313-.5322.469-1.2964.469-2.2925 0-1.0156-.156-1.7749-.469-2.2778-.307-.503-.796-.7544-1.464-.7544zM204.675 33l-.271-1.1133h-.059c-.161.2197-.322.4102-.483.5713-.161.1563-.337.2857-.528.3882-.19.1025-.402.1782-.637.227-.234.0489-.505.0733-.813.0733-.337 0-.647-.0488-.93-.1465-.283-.0928-.53-.2368-.74-.4321-.205-.2002-.366-.4492-.483-.7471-.117-.3027-.176-.6592-.176-1.0693 0-.8008.281-1.4161.842-1.8457.567-.4297 1.426-.6641 2.579-.7032l1.347-.0512v-.5054c0-.3272-.036-.6006-.11-.8203-.068-.2197-.171-.3955-.307-.5274-.132-.1367-.298-.2343-.498-.2929-.196-.0586-.42-.0879-.674-.0879-.405 0-.784.0586-1.135.1758-.347.1171-.682.2588-1.004.4248l-.469-1.0035c.362-.1953.765-.3613 1.209-.498.444-.1367.911-.2051 1.399-.2051.498 0 .928.0513 1.289.1538.366.0977.666.2564.901.4761.239.2148.417.4907.534.8276.118.337.176.7447.176 1.2232V33h-.959zm-2.446-.9302c.297 0 .573-.0464.827-.1391.254-.0928.474-.232.659-.4175.186-.1904.33-.4273.432-.7105.108-.2881.162-.625.162-1.0107v-.7251l-1.048.0513c-.439.0195-.808.0683-1.106.1464-.298.0782-.537.188-.717.3296-.176.1368-.303.3052-.381.5054-.078.1953-.118.4175-.118.6665 0 .4492.118.7788.352.9888.239.2099.552.3149.938.3149zm8.313-.0146c.087 0 .185-.0049.292-.0147.113-.0097.22-.0219.323-.0366.102-.0146.195-.0317.278-.0513.088-.0195.154-.0366.198-.0512v1.0107c-.064.0293-.144.0586-.242.0879-.098.0293-.205.0537-.322.0732-.117.0245-.239.0415-.366.0513-.127.0147-.252.022-.374.022-.303 0-.583-.0391-.842-.1172s-.484-.2124-.674-.4028c-.186-.1905-.332-.4468-.439-.7691-.108-.3271-.162-.7373-.162-1.2304v-4.6656h-1.135v-.5932l1.135-.5713.572-1.6846h.769v1.8457h2.021v1.0034h-2.021v4.6656c0 .4736.075.83.227 1.0693.156.2392.41.3589.762.3589z" fill="#7A7A7A"/></svg>