<svg width="75" height="78" viewBox="0 0 75 78" fill="none" xmlns="http://www.w3.org/2000/svg"><path fill="#fff" d="M0 0h75v78H0z"/><path d="M27.209 68l-2.3794-6.875h-.043c.0215.265.0394.5282.0537.7896.0144.2255.0251.4637.0323.7143.0107.2471.0161.4727.0161.6768V68h-.9239v-7.8525h1.4825l2.2129 6.4023h.0322l2.2236-6.4023h1.4824V68h-.999v-4.7642c0-.1862.0036-.3992.0108-.6391.0071-.2399.0161-.4691.0268-.6875.0143-.2543.0269-.5121.0376-.7735h-.043L28.0308 68h-.8218zm10.4038 0h-4.0767v-7.8525h4.0767v.8808h-3.0776v2.4278h2.8735v.8701h-2.8735v2.7929h3.0776V68zm7.6162 0h-1.1548l-3.8618-6.499h-.043c.0215.2757.0394.5496.0537.8218.0144.2327.0251.4762.0323.7304.0107.2543.0161.4834.0161.6875V68h-.9238v-7.8525h1.144l3.8457 6.4668h.0376c-.0107-.2722-.0233-.5407-.0376-.8057-.0036-.1146-.0089-.231-.0161-.3491-.0036-.1218-.009-.2417-.0161-.3599-.0036-.1217-.0072-.2381-.0108-.3491v-4.603h.9346V68zm3.9692-3.8833l1.8262-3.9692h1.0742l-2.3955 4.7963V68h-1.0044v-3.0024l-2.3955-4.8501h1.0904l1.8046 3.9692z" fill="#000"/><path fill-rule="evenodd" clip-rule="evenodd" d="M26 18.8333c0-.4862.1731-.9525.4812-1.2963.3081-.3438.7259-.537 1.1617-.537h19.7142c.4358 0 .8536.1932 1.1617.537.3081.3438.4812.8101.4812 1.2963 0 .4863-.1731.9526-.4812 1.2964-.3081.3438-.7259.537-1.1617.537H27.6429c-.4358 0-.8536-.1932-1.1617-.537-.3081-.3438-.4812-.8101-.4812-1.2964zM26 28c0-.4862.1731-.9526.4812-1.2964.3081-.3438.7259-.5369 1.1617-.5369h19.7142c.4358 0 .8536.1931 1.1617.5369.3081.3438.4812.8102.4812 1.2964 0 .4862-.1731.9525-.4812 1.2964-.3081.3438-.7259.5369-1.1617.5369H27.6429c-.4358 0-.8536-.1931-1.1617-.5369C26.1731 28.9525 26 28.4862 26 28zM26 37.1666c0-.4862.1731-.9525.4812-1.2963.3081-.3439.7259-.537 1.1617-.537h19.7142c.4358 0 .8536.1931 1.1617.537.3081.3438.4812.8101.4812 1.2963 0 .4862-.1731.9526-.4812 1.2964-.3081.3438-.7259.5369-1.1617.5369H27.6429c-.4358 0-.8536-.1931-1.1617-.5369-.3081-.3438-.4812-.8102-.4812-1.2964z" fill="#000"/></svg>