<svg width="47" height="64" viewBox="0 0 47 64" fill="none" xmlns="http://www.w3.org/2000/svg"><path fill="#10A5C5" d="M0 0h47v64H0z"/><path d="M23 33.4894c3.1562 0 5.7143-2.5717 5.7143-5.7447C28.7143 24.5716 26.1562 22 23 22c-3.1562 0-5.7143 2.5716-5.7143 5.7447 0 3.173 2.5581 5.7447 5.7143 5.7447zm4 1.4361h-.7455c-.9911.4578-2.0938.7181-3.2545.7181-1.1607 0-2.2589-.2603-3.2545-.7181H19c-3.3125 0-6 2.7018-6 6.0319v1.8671c0 1.1893.9598 2.1542 2.1429 2.1542h15.7142c1.1831 0 2.1429-.9649 2.1429-2.1542v-1.8671c0-3.3301-2.6875-6.0319-6-6.0319z" fill="#fff"/></svg>