<svg width="47" height="64" viewBox="0 0 47 64" fill="none" xmlns="http://www.w3.org/2000/svg"><path fill="#10A5C5" d="M0 0h47v64H0z"/><path d="M22 22c-6.0747 0-11 4.9271-11 11 0 6.0765 4.9253 11 11 11s11-4.9235 11-11c0-6.0729-4.9253-11-11-11zm0 19.871c-4.9026 0-8.871-3.9667-8.871-8.871 0-4.901 3.9685-8.871 8.871-8.871 4.9008 0 8.871 3.9685 8.871 8.871S26.9043 41.871 22 41.871zm4.7568-11.3194c0 2.9741-3.2122 3.0199-3.2122 4.1189v.2811c0 .294-.2384.5323-.5323.5323h-2.0247c-.2939 0-.5322-.2383-.5322-.5323v-.3841c0-1.5854 1.202-2.2192 2.1103-2.7285.779-.4367 1.2564-.7337 1.2564-1.312 0-.7649-.9758-1.2726-1.7647-1.2726-1.0285 0-1.5033.4869-2.1708 1.3292-.1799.2271-.5083.2693-.7392.0942l-1.2341-.9358c-.2265-.1717-.2773-.4908-.1173-.7257 1.048-1.5389 2.3828-2.4034 4.461-2.4034 2.1765 0 4.4998 1.699 4.4998 3.9387zm-2.8939 7.4161c0 1.0273-.8357 1.8629-1.8629 1.8629-1.0272 0-1.8629-.8356-1.8629-1.8629 0-1.0272.8357-1.8629 1.8629-1.8629 1.0272 0 1.8629.8357 1.8629 1.8629z" fill="#fff"/></svg>