<svg width="75" height="78" viewBox="0 0 75 78" fill="none" xmlns="http://www.w3.org/2000/svg"><path fill="#fff" d="M0 0h75v78H0z"/><path d="M15.6343 68H14.501l-2.4224-3.749-.7466.6123V68h-.999v-7.8525h.999v3.9262l.6499-.9023 2.4278-3.0239h1.1225l-2.7929 3.4213L15.6343 68zm6.687-7.8633v5.0918c0 .4082-.0591.7878-.1773 1.1387-.1181.3509-.2972.6553-.5371.9131-.2363.2578-.5353.4601-.8969.6069-.3581.1468-.7806.2202-1.2676.2202-.4584 0-.863-.068-1.2139-.2041-.3509-.1396-.6463-.3366-.8862-.5908-.2363-.2542-.4154-.5586-.5371-.9131-.1218-.3581-.1826-.7555-.1826-1.1924v-5.0595h1.0044v5.1132c0 .6267.1539 1.1119.4619 1.4556.3115.3438.7806.5156 1.4072.5156.3187 0 .5926-.0483.8218-.145.2291-.0967.4171-.2327.5639-.4082.1468-.1754.2561-.3849.3277-.6284.0716-.2435.1092-.5103.1128-.8003v-5.1133h.999zm6.7676 2.3096c0 .3258-.0502.6391-.1504.9399-.0967.3008-.2578.5676-.4834.8003-.2256.2292-.5246.4136-.897.5532-.3688.1361-.8254.2041-1.3696.2041h-.8057V68h-.999v-7.8525h1.9443c.4798 0 .8934.0519 1.2407.1557.3474.1003.6338.2489.8594.4458.2256.1934.3921.4333.4995.7198.1075.2864.1612.6123.1612.9775zm-3.7061 1.6489h.6929c.333 0 .623-.0286.8701-.0859.2507-.0573.4565-.1486.6177-.2739.1647-.129.2882-.2937.3706-.4942.0823-.2041.1235-.4512.1235-.7412 0-.5085-.1468-.8844-.4404-1.1279-.2936-.2471-.752-.3706-1.375-.3706h-.8594v3.0937zm11.752-.0322c0 .6051-.0734 1.1566-.2202 1.6543-.1433.4977-.3581.9238-.6446 1.2783-.2864.3545-.6427.6284-1.0688.8218-.4226.1933-.9113.29-1.4663.29-.5837 0-1.0904-.0967-1.5201-.29-.4261-.1934-.7806-.4673-1.0634-.8218-.2793-.3545-.487-.7806-.6231-1.2783-.136-.5013-.2041-1.0563-.2041-1.6651 0-.6087.0681-1.1601.2041-1.6543.1361-.4977.3456-.922.6284-1.2729.2829-.3509.6392-.6213 1.0689-.811.4297-.1934.9363-.2901 1.52-.2901.555 0 1.042.0967 1.4609.2901.4226.1897.7771.4619 1.0635.8164.2865.3509.5013.7752.6446 1.2729.1468.4942.2202 1.0474.2202 1.6597zm-5.7525 0c0 .4905.0466.9328.1397 1.3266.0931.3903.2345.7234.4243.9991.1933.2721.4368.4816.7305.6284.2972.1432.6499.2148 1.0581.2148s.7591-.0716 1.0527-.2148c.2972-.1468.5407-.3563.7305-.6284.1933-.2757.3348-.6088.4243-.9991.0895-.3938.1343-.8361.1343-1.3266 0-.4942-.0448-.9364-.1343-1.3267s-.2292-.7197-.419-.9883c-.1897-.2721-.4314-.4798-.7251-.623-.2936-.1468-.6445-.2202-1.0527-.2202s-.7609.0734-1.0581.2202c-.2972.1432-.5425.3509-.7358.623-.1934.2686-.3366.598-.4297.9883-.0931.3903-.1397.8325-.1397 1.3267zM44.7671 68h-1.1548l-3.8618-6.499h-.043c.0215.2757.0394.5496.0537.8218.0144.2327.0251.4762.0323.7304.0107.2543.0161.4834.0161.6875V68h-.9239v-7.8525h1.1441l3.8457 6.4668h.0376c-.0108-.2722-.0233-.5407-.0376-.8057-.0036-.1146-.009-.231-.0161-.3491-.0036-.1218-.009-.2417-.0161-.3599-.0036-.1217-.0072-.2381-.0108-.3491v-4.603h.9346V68zm5.2744-4.1465h2.5996v3.8511c-.1969.0644-.3957.1217-.5962.1719-.2005.0501-.4064.0913-.6177.1235-.2112.0358-.4332.0627-.666.0806-.2327.0179-.4834.0268-.7519.0268-.5622 0-1.0599-.0931-1.4932-.2793-.4333-.1898-.7985-.4583-1.0957-.8056-.2972-.351-.5228-.7753-.6767-1.273-.154-.5013-.231-1.0635-.231-1.6865 0-.6159.0841-1.1727.2524-1.6704.1719-.4977.4208-.9203.7466-1.2676.3259-.3509.7269-.6195 1.2031-.8057.4799-.1897 1.0259-.2846 1.6382-.2846.3975 0 .7788.0394 1.1441.1181.3652.0788.7054.1934 1.0205.3438l-.3867.8701c-.1289-.0609-.2686-.1182-.419-.1719-.1468-.0537-.299-.1002-.4565-.1396-.1576-.043-.3205-.077-.4888-.1021-.1647-.025-.3294-.0376-.4941-.0376-.4369 0-.8236.0734-1.1602.2202-.3366.1433-.6195.351-.8486.6231-.2256.2721-.3975.6033-.5157.9936-.1181.3903-.1772.8308-.1772 1.3213 0 .4655.0483.8916.145 1.2784.1003.3867.2578.7197.4727.999.2148.2793.4923.4959.8325.6499.3402.1539.7502.2309 1.23.2309.1575 0 .3008-.0035.4297-.0107.1325-.0108.2542-.0233.3652-.0376.111-.0143.2148-.0304.3115-.0483.1003-.0215.197-.0412.2901-.0591v-2.3418h-1.606v-.8809zM58.5815 68h-4.0766v-7.8525h4.0766v.8808h-3.0776v2.4278h2.8735v.8701h-2.8735v2.7929h3.0776V68zm2.7339-3.2441V68h-.999v-7.8525h1.9121c.9525 0 1.6561.1844 2.1109.5532.4547.3688.6821.9274.6821 1.6758 0 .3115-.0448.5836-.1343.8164-.0859.2327-.2023.4332-.3491.6015-.1432.1647-.308.3026-.4942.4136-.1862.111-.3777.2023-.5747.2739L65.6069 68h-1.1762l-1.8853-3.2441h-1.23zm0-.8487h.8809c.3223 0 .5962-.0304.8218-.0913.2256-.0644.41-.1575.5532-.2793.1468-.1253.2524-.2793.3169-.4619.068-.1862.102-.4028.102-.6499 0-.2578-.0376-.4762-.1128-.6553-.0716-.179-.1826-.3258-.333-.4404-.1468-.1146-.3348-.1969-.5639-.2471-.2256-.0537-.4942-.0805-.8057-.0805h-.8594v2.9057z" fill="#000"/><rect x="48.4566" y="13.1647" width="22" height="31.2615" rx="3" transform="rotate(68.016 48.4566 13.1647)" fill="#000"/><rect x="45.1702" y="19.4942" width="11.7229" height="19.5011" rx="2.25" transform="rotate(68.016 45.1702 19.4942)" fill="#000" stroke="#fff" stroke-width="1.5"/><circle cx="52.5331" cy="23.2624" r="3.11128" transform="rotate(68.016 52.5331 23.2624)" fill="#fff"/><circle cx="23.6825" cy="34.9093" r="3.11128" transform="rotate(68.016 23.6825 34.9093)" fill="#fff"/></svg>