<svg width="291" height="488" viewBox="0 0 291 488" fill="none" xmlns="http://www.w3.org/2000/svg"><rect x="290.961" width="455.335" height="290.961" rx="12" transform="rotate(90 290.961 0)" fill="#fff"/><path fill-rule="evenodd" clip-rule="evenodd" d="M258.702 74.2876v2.9056l-31.06 12.868v.0928l31.06 12.729v2.907h-33.349v-2.029h30.827v-.092l-30.827-12.5475v-2.0293l30.827-12.6834v-.092h-30.827v-2.0292h33.349zM238.665 109.39c4.764.369 9.715 3.459 9.715 8.716 0 5.444-4.671 8.579-9.715 8.672V109.39zm-1.541 19.14c6.865.323 12.797-2.998 12.797-10.424 0-7.148-6.399-10.563-12.984-10.469-6.632-.094-12.144 3.552-12.144 10.469 0 5.627 3.082 9.317 8.688 10.241v-1.754c-4.437-.83-7.147-4.012-7.147-8.487 0-5.856 5.138-8.809 10.79-8.716v19.14zM241.935 149.101c4.25-.323 6.445-3.735 6.445-8.025 0-5.949-5.324-9.132-10.789-9.132-6.492 0-11.257 2.997-11.257 9.132 0 4.427 3.083 7.657 7.473 8.256v1.753c-5.744-.784-9.014-4.889-9.014-10.009 0-7.702 6.119-10.886 12.798-10.886s12.33 3.876 12.33 10.886c0 5.12-2.521 9.27-7.986 9.778v-1.753zM238.665 154.618c4.764.368 9.715 3.458 9.715 8.718 0 5.442-4.671 8.578-9.715 8.669v-17.387zm-1.541 19.141c6.865.323 12.797-2.997 12.797-10.423 0-7.15-6.399-10.563-12.984-10.471-6.632-.092-12.144 3.551-12.144 10.471 0 5.627 3.082 9.316 8.688 10.237v-1.752c-4.437-.83-7.147-4.012-7.147-8.485 0-5.859 5.138-8.81 10.79-8.718v19.141zM249.361 176.25v1.751h-5.138v.091c3.597 1.2 5.698 4.798 5.698 8.489 0 8.348-6.771 8.439-9.714 8.439h-14.854v-1.751h15.18c2.476 0 7.847-.276 7.847-6.734 0-5.305-4.157-8.534-10.042-8.534h-12.985v-1.751h24.008zM234.507 213.957c-1.26 0-8.173-.877-8.173-8.857 0-4.151 2.336-6.227 5.231-6.227 3.597 0 5.092 2.353 5.559 6.504.467 3.414.28 7.195 1.868 8.58h-4.485zm9.156 1.751c4.951 0 6.258-4.149 6.258-8.302 0-5.579-2.662-8.809-7.94-9.038v1.751c4.157.231 6.399 3.045 6.399 7.287 0 5.397-3.643 6.595-4.717 6.595-3.924 0-4.438-.321-4.998-8.163-.327-3.92-1.495-8.717-7.1-8.717-5.043 0-6.772 3.458-6.772 7.934 0 4.519 2.476 7.703 5.325 8.809v.093h-1.261c-1.962 0-3.504.414-3.504 3.182 0 .46.094.923.188 1.429h1.495c-.095-.552-.141-.969-.141-1.29 0-1.57 1.494-1.57 2.896-1.57h13.872zM247.82 229.085v-5.166h-16.768c-3.877 0-4.25 1.799-4.157 5.119h-1.542c-.234-3.597.28-7.056 5.699-6.873h16.768v-4.379h1.541v4.379h7.473v1.754h-7.473v5.166h-1.541z" fill="#231F1F"/><path fill-rule="evenodd" clip-rule="evenodd" d="M241.081 51.0235v7.2956c0 .3006.257.5533.562.5533h17.077v-2.1413c0-.0008-12.828 0-15.471 0v-3.4504h15.471v-2.1498l-17.079.0046c-.199 0-.384-.0479-.56-.112z" fill="#0092AF"/><path fill-rule="evenodd" clip-rule="evenodd" d="M258.72 59.9435h-17.077c-.907 0-1.647-.7287-1.647-1.6243 0 0-.005-17.5766-.005-17.5805V20.296c0-.8941.738-1.622 1.645-1.622h14.332c.907 0 1.644.7279 1.644 1.622l.003 20.4512c0 .8941-.739 1.6221-1.647 1.6221h-14.335c-.196 0-.378-.0479-.552-.1105v7.257c0 .3022.251.5487.56.5487l17.079-.0047v-2.1336h-15.471v-3.4179h12.726c2.103 0 3.812-1.6908 3.812-3.7696V20.296c0-2.0756-1.709-3.7641-3.812-3.7641h-14.332c-2.102 0-3.814 1.6885-3.814 3.7641l-.003 38.0255c0 2.0756 1.711 3.7641 3.812 3.7641h17.082v-2.1421z" fill="#0092AF"/><path fill-rule="evenodd" clip-rule="evenodd" d="M256.528 20.296c0-.3037-.252-.551-.56-.551h-14.332c-.309 0-.561.2473-.561.551v19.3037h.006v1.1638c.007.1329.063.2511.148.3438.007.007.004.0186.011.0248.102.1012.241.163.396.163v.0031h14.332c.305 0 .563-.2527.563-.551l-.003-20.4512zm-13.276 18.8578V21.8864h11.113v17.2674h-11.113z" fill="#0092AF"/><path d="M102.698 24.8639v-2.0625h11.777c.383.0078.762.0156 1.137.0235.383.0156.746.0273 1.09.0351.351.0156.66.0274.925.0352-.14-.1328-.261-.25-.363-.3516-.101-.1016-.199-.207-.293-.3164-.094-.1016-.195-.2109-.305-.3281-.101-.1172-.222-.2578-.363-.4219l-1.418-1.7344 1.442-1.125 3.504 4.4883v1.7578h-17.133zm0 16.6992V30.8756h1.828l4.465 4.1016c.632.5859 1.211 1.1094 1.734 1.5703.523.461 1.035.8516 1.535 1.1719.5.3281 1 .5781 1.5.75.508.1719 1.059.2578 1.653.2578.46 0 .867-.0664 1.218-.1992.352-.1328.649-.3242.891-.5742.25-.2422.437-.5313.562-.8672.125-.336.188-.711.188-1.125 0-.7422-.152-1.4141-.457-2.0156-.297-.5938-.68-1.1602-1.149-1.6993l1.395-1.1953c.281.3125.543.6485.785 1.0078.25.3594.465.7461.645 1.1602.179.4141.32.8516.422 1.3125.109.4609.164.9453.164 1.4531 0 .75-.106 1.4258-.317 2.0274-.211.6093-.515 1.125-.914 1.5468-.39.4219-.871.7461-1.441.9727-.563.2344-1.199.3516-1.91.3516-.664 0-1.297-.1055-1.899-.3165-.601-.2031-1.195-.4882-1.781-.8554-.578-.3594-1.16-.793-1.746-1.3008-.586-.5-1.196-1.043-1.828-1.6289l-3.504-3.293h-.094v8.0742h-1.945zm13.125 12.668c-.571 0-1.09-.0898-1.559-.2695-.469-.1797-.875-.4336-1.219-.7617-.343-.3204-.629-.7071-.855-1.1602-.219-.4531-.375-.957-.469-1.5117h-.07c-.172 1.3828-.613 2.4336-1.324 3.1523-.704.7188-1.621 1.0782-2.754 1.0782-.75 0-1.438-.129-2.063-.3868-.625-.25-1.164-.6328-1.617-1.1484-.453-.5156-.805-1.168-1.055-1.957-.25-.7891-.375-1.7227-.375-2.8008 0-.8516.067-1.6563.2-2.4141.132-.75.375-1.457.726-2.1211h1.992c-.359.6797-.636 1.4141-.832 2.2032-.195.7968-.293 1.5585-.293 2.2851 0 .7188.078 1.3399.235 1.8633.156.5234.379.9531.668 1.2891.289.3437.644.5937 1.066.75.422.164.895.246 1.418.246.531 0 .984-.1054 1.359-.3164.383-.2031.696-.4961.938-.8789.25-.3828.433-.8515.551-1.4062.117-.5469.175-1.168.175-1.8633v-1.5586h1.77v1.5586c0 .6328.078 1.1953.234 1.6875.157.4922.379.9023.668 1.2305.289.3359.633.5898 1.032.7617.398.1719.836.2578 1.312.2578.406 0 .77-.0703 1.09-.2109.32-.1407.59-.3399.809-.5977.226-.2578.398-.5664.515-.9258.117-.3593.176-.7578.176-1.1953 0-.8359-.133-1.5742-.399-2.2148-.257-.6328-.597-1.2383-1.019-1.8164l1.465-1.0782c.242.2969.469.625.679.9844.211.3672.395.7656.551 1.1953.164.4297.293.8867.387 1.3711.094.4922.141 1.0117.141 1.5586 0 .8438-.106 1.582-.317 2.2149-.211.6406-.508 1.1757-.89 1.6054-.375.4297-.825.7539-1.348.9727-.516.2187-1.082.3281-1.699.3281zm-9.282 14.6953v-2.4961h-3.843v-2.0625h3.843v-7.9101h1.864l11.519 7.7695v2.2031h-11.437v2.4961h-1.946zm1.946-4.5586h4.172c.437 0 .894.0039 1.371.0117.484.0157.953.0313 1.406.0469.461.0156.891.0313 1.289.0469.398.0234.731.0391.996.0469v-.1055c-.156-.0547-.332-.125-.527-.2109-.188-.0782-.379-.168-.574-.2696-.188-.0937-.372-.1914-.551-.2929-.18-.1016-.332-.1953-.457-.2813l-7.125-4.8164v5.8242zm4.722 17.6602c0 .7734-.109 1.4922-.328 2.1562-.211.6719-.527 1.2539-.949 1.7461-.422.5-.945.8907-1.57 1.1719-.625.2813-1.348.4219-2.168.4219-.891 0-1.692-.1328-2.403-.3985-.71-.2656-1.312-.6601-1.804-1.1836-.492-.5234-.871-1.1718-1.137-1.9453-.258-.7656-.387-1.6484-.387-2.6484 0-.3984.02-.793.059-1.1836.039-.3828.098-.7539.176-1.1133.07-.3515.164-.6875.281-1.0078.117-.3203.254-.6094.41-.8672h2.016c-.18.2578-.34.5586-.481.9024-.14.3515-.258.7187-.351 1.1015-.094.3828-.168.7657-.223 1.1485-.047.3906-.07.75-.07 1.0781 0 .6172.07 1.168.211 1.6523.148.4844.375.8946.679 1.2305.305.3359.688.5938 1.149.7734.461.1797 1.008.2696 1.64.2696 1.118 0 1.969-.3438 2.555-1.0313.594-.6875.891-1.6875.891-3 0-.2109-.012-.4414-.035-.6914-.016-.2422-.039-.4883-.071-.7383-.031-.2422-.066-.4765-.105-.7031-.031-.2187-.063-.4101-.094-.5742l.668-1.0547 8.063.6445v8.086h-1.946v-6.2344l-4.91-.457c.047.25.098.5781.152.9843.055.4141.082.9024.082 1.4649zm-3.187 8.1562c.82 0 1.637.0391 2.449.1172.813.086 1.59.2305 2.332.4336.75.211 1.445.4961 2.086.8555.641.3594 1.195.8164 1.664 1.3711.477.5547.848 1.2187 1.113 1.9922.274.7734.411 1.6797.411 2.7187 0 .1485-.004.3125-.012.4922-.008.1797-.024.3594-.047.5391-.016.1875-.039.3632-.07.5273-.024.1719-.055.3242-.094.457h-1.816c.093-.2734.164-.582.21-.9257.047-.3438.071-.6836.071-1.0196 0-.7031-.086-1.3242-.258-1.8633-.164-.5312-.398-.9921-.703-1.3828-.305-.3906-.668-.7187-1.09-.9843-.422-.2579-.891-.4688-1.406-.6329-.508-.164-1.051-.2851-1.629-.3632-.578-.0782-1.18-.1289-1.805-.1524v.1406c.281.1563.543.3438.785.5625.25.2266.461.4883.633.7852.18.2969.32.6289.422.9961.102.375.152.793.152 1.2539 0 .7422-.117 1.4141-.351 2.0156-.227.6016-.563 1.1133-1.008 1.5352-.445.422-.992.746-1.641.973-.64.234-1.375.351-2.203.351-.89 0-1.691-.121-2.402-.363-.711-.242-1.317-.59-1.817-1.043-.492-.4532-.871-1-1.136-1.6407-.266-.6406-.399-1.3593-.399-2.1562 0-.7813.153-1.5156.457-2.2031.305-.6797.77-1.2696 1.395-1.7696s1.41-.8945 2.355-1.1836c.946-.289 2.063-.4336 3.352-.4336zm-5.766 5.5664c0 .4688.078.8946.235 1.2774.164.3906.406.7265.726 1.0078.328.2812.739.4961 1.231.6445.5.1563 1.09.2344 1.769.2344.547 0 1.035-.0664 1.465-.1992.438-.125.809-.3164 1.113-.5742.305-.2578.539-.5821.703-.9727.165-.3828.247-.832.247-1.3476 0-.5235-.094-1.004-.282-1.4415-.179-.4296-.418-.7968-.715-1.1015-.289-.3047-.621-.543-.996-.7149-.375-.164-.75-.2461-1.125-.2461-.523 0-1.046.0704-1.57.211-.516.1484-.98.3633-1.394.6445-.415.2891-.754.6485-1.02 1.0781-.258.4297-.387.9297-.387 1.5zm-1.558 9.6214l15.187 6.597v-8.836h1.946v11.016h-1.7l-15.433-6.504v-2.273zm17.402 16.547c0 .656-.086 1.273-.258 1.851-.172.586-.429 1.098-.773 1.535-.344.446-.774.797-1.289 1.055-.516.258-1.117.387-1.805.387-.523 0-.996-.078-1.418-.235-.422-.156-.805-.371-1.148-.644-.336-.274-.641-.598-.914-.973-.266-.375-.508-.781-.727-1.219-.242.454-.512.895-.809 1.325-.296.437-.632.824-1.007 1.16-.368.344-.782.617-1.243.82-.461.211-.976.317-1.546.317-.719 0-1.372-.133-1.957-.399-.579-.258-1.071-.625-1.477-1.101-.406-.469-.719-1.036-.938-1.7-.218-.656-.328-1.383-.328-2.179 0-.86.106-1.625.317-2.297.211-.664.511-1.227.902-1.688.399-.453.883-.801 1.453-1.043.571-.234 1.215-.351 1.934-.351.586 0 1.113.086 1.582.258.469.179.89.417 1.265.714.375.297.707.649.997 1.055.289.406.543.836.761 1.289.242-.383.504-.742.785-1.078.289-.336.61-.629.961-.879.352-.242.739-.437 1.161-.586.429-.14.902-.211 1.417-.211.68 0 1.274.129 1.782.387.515.266.945.621 1.289 1.066.344.446.601.957.773 1.535.172.586.258 1.196.258 1.829zm-13.055-3.282c-.414 0-.797.063-1.148.188-.344.125-.641.32-.891.586-.242.265-.433.601-.574 1.008-.133.406-.199.89-.199 1.453 0 .547.066 1.027.199 1.441.141.422.336.774.586 1.055.258.281.566.492.926.633.359.14.758.211 1.195.211.406 0 .774-.079 1.102-.235.328-.148.632-.367.914-.656.281-.281.547-.621.797-1.02.25-.398.496-.843.738-1.336l.164-.351c-.469-.984-1.008-1.727-1.617-2.227-.602-.5-1.332-.75-2.192-.75zm11.274 3.258c0-.828-.207-1.488-.621-1.98-.414-.485-1.016-.727-1.805-.727-.445 0-.828.067-1.148.199-.321.141-.606.332-.856.575-.25.242-.476.531-.68.867-.195.344-.386.715-.574 1.113.172.375.36.727.563 1.055.203.336.433.625.691.867.258.25.551.445.879.586.328.14.703.211 1.125.211.789 0 1.391-.246 1.805-.738.414-.493.621-1.168.621-2.028zm-5.801 24.903c-.82 0-1.641-.043-2.461-.129-.812-.079-1.59-.223-2.332-.434-.742-.203-1.437-.484-2.086-.844-.641-.359-1.195-.816-1.664-1.371-.469-.555-.84-1.219-1.113-1.992-.266-.773-.399-1.68-.399-2.719 0-.148.004-.312.012-.492s.023-.359.047-.539c.016-.18.035-.355.059-.527.023-.172.054-.325.093-.457h1.828c-.101.273-.175.582-.222.925-.047.344-.071.684-.071 1.02 0 1.055.184 1.922.551 2.601.367.68.863 1.219 1.488 1.618.633.398 1.368.679 2.204.843.836.172 1.718.278 2.648.317v-.153c-.281-.156-.543-.343-.785-.562-.242-.219-.453-.477-.633-.773-.18-.297-.32-.633-.422-1.008-.101-.375-.152-.793-.152-1.254 0-.742.113-1.414.34-2.016.234-.601.574-1.113 1.019-1.535.446-.422.989-.75 1.629-.984.649-.227 1.387-.34 2.215-.34.891 0 1.691.121 2.402.363.719.25 1.325.598 1.817 1.043.5.453.883 1 1.148 1.641.266.648.399 1.371.399 2.168 0 .789-.153 1.523-.457 2.203-.305.679-.77 1.269-1.395 1.769s-1.414.895-2.367 1.184c-.945.289-2.059.434-3.34.434zm5.754-5.567c0-.469-.078-.898-.234-1.289-.157-.383-.399-.715-.727-.996-.328-.281-.742-.5-1.242-.656-.492-.149-1.078-.223-1.758-.223-.547 0-1.039.063-1.477.188-.429.132-.796.328-1.101.585-.305.258-.539.579-.703.961-.164.391-.246.844-.246 1.36 0 .531.089 1.012.269 1.441.188.43.426.797.715 1.102.297.304.633.539 1.008.703.375.172.75.258 1.125.258.523 0 1.043-.075 1.558-.223.524-.141.993-.355 1.407-.644.422-.282.761-.637 1.019-1.067.258-.43.387-.93.387-1.5zm-6.984 18.832c-1.383 0-2.622-.101-3.715-.305-1.094-.195-2.02-.515-2.778-.96-.757-.438-1.336-1.004-1.734-1.7-.398-.695-.598-1.539-.598-2.531 0-.922.2-1.727.598-2.414.398-.68.977-1.246 1.734-1.699.758-.446 1.684-.781 2.778-1.008 1.093-.219 2.332-.328 3.715-.328 1.382 0 2.621.097 3.714.293 1.094.203 2.016.519 2.766.949.758.438 1.336 1 1.734 1.688.399.695.598 1.535.598 2.519 0 .93-.199 1.738-.598 2.426-.39.687-.964 1.258-1.722 1.711-.75.453-1.672.793-2.766 1.019-1.094.227-2.336.34-3.726.34zm0-8.777c-1.172 0-2.196.058-3.071.176-.875.117-1.605.304-2.191.562-.578.258-1.016.594-1.313 1.008-.289.422-.433.933-.433 1.535 0 .602.144 1.113.433 1.535.289.422.723.766 1.301 1.031.578.274 1.305.469 2.18.586.883.125 1.914.188 3.094.188 1.171 0 2.195-.063 3.07-.188.875-.117 1.601-.312 2.18-.586.578-.265 1.011-.609 1.3-1.031.289-.422.434-.933.434-1.535 0-.602-.145-1.113-.434-1.535-.289-.414-.722-.75-1.3-1.008-.579-.258-1.305-.445-2.18-.562-.875-.118-1.899-.176-3.07-.176zm0 21.996c-1.383 0-2.622-.102-3.715-.305-1.094-.195-2.02-.515-2.778-.961-.757-.437-1.336-1.004-1.734-1.699-.398-.695-.598-1.539-.598-2.531 0-.922.2-1.727.598-2.414.398-.68.977-1.246 1.734-1.699.758-.446 1.684-.782 2.778-1.008 1.093-.219 2.332-.328 3.715-.328 1.382 0 2.621.097 3.714.293 1.094.203 2.016.519 2.766.949.758.437 1.336 1 1.734 1.687.399.696.598 1.535.598 2.52 0 .929-.199 1.738-.598 2.426-.39.687-.964 1.257-1.722 1.711-.75.453-1.672.792-2.766 1.019-1.094.227-2.336.34-3.726.34zm0-8.777c-1.172 0-2.196.058-3.071.175-.875.118-1.605.305-2.191.563-.578.258-1.016.594-1.313 1.008-.289.422-.433.933-.433 1.535 0 .601.144 1.113.433 1.535.289.422.723.766 1.301 1.031.578.274 1.305.469 2.18.586.883.125 1.914.188 3.094.188 1.171 0 2.195-.063 3.07-.188.875-.117 1.601-.312 2.18-.586.578-.265 1.011-.609 1.3-1.031.289-.422.434-.934.434-1.535 0-.602-.145-1.113-.434-1.535-.289-.414-.722-.75-1.3-1.008-.579-.258-1.305-.445-2.18-.563-.875-.117-1.899-.175-3.07-.175zm0 21.996c-1.383 0-2.622-.102-3.715-.305-1.094-.195-2.02-.516-2.778-.961-.757-.437-1.336-1.004-1.734-1.699-.398-.696-.598-1.539-.598-2.531 0-.922.2-1.727.598-2.415.398-.679.977-1.246 1.734-1.699.758-.445 1.684-.781 2.778-1.008 1.093-.218 2.332-.328 3.715-.328 1.382 0 2.621.098 3.714.293 1.094.203 2.016.52 2.766.95.758.437 1.336 1 1.734 1.687.399.695.598 1.535.598 2.52 0 .929-.199 1.738-.598 2.425-.39.688-.964 1.258-1.722 1.711-.75.453-1.672.793-2.766 1.02-1.094.226-2.336.34-3.726.34zm0-8.778c-1.172 0-2.196.059-3.071.176-.875.117-1.605.305-2.191.563-.578.257-1.016.593-1.313 1.007-.289.422-.433.934-.433 1.536 0 .601.144 1.113.433 1.535.289.422.723.765 1.301 1.031.578.273 1.305.469 2.18.586.883.125 1.914.187 3.094.187 1.171 0 2.195-.062 3.07-.187.875-.117 1.601-.313 2.18-.586.578-.266 1.011-.609 1.3-1.031.289-.422.434-.934.434-1.535 0-.602-.145-1.114-.434-1.536-.289-.414-.722-.75-1.3-1.007-.579-.258-1.305-.446-2.18-.563-.875-.117-1.899-.176-3.07-.176zm-8.59 24.469v-2.062h11.777c.383.007.762.015 1.137.023.383.016.746.027 1.09.035.351.016.66.027.925.035-.14-.133-.261-.25-.363-.351-.101-.102-.199-.207-.293-.317-.094-.101-.195-.211-.305-.328-.101-.117-.222-.258-.363-.422l-1.418-1.734 1.442-1.125 3.504 4.488v1.758h-17.133zm0 16.699v-10.687h1.828l4.465 4.101c.632.586 1.211 1.11 1.734 1.571.523.461 1.035.851 1.535 1.172.5.328 1 .578 1.5.75.508.171 1.059.257 1.653.257.46 0 .867-.066 1.218-.199.352-.133.649-.324.891-.574.25-.242.437-.531.562-.867.125-.336.188-.711.188-1.125 0-.742-.152-1.414-.457-2.016-.297-.594-.68-1.16-1.149-1.699l1.395-1.195c.281.312.543.648.785 1.007.25.36.465.746.645 1.161.179.414.32.851.422 1.312.109.461.164.945.164 1.453 0 .75-.106 1.426-.317 2.027-.211.61-.515 1.125-.914 1.547-.39.422-.871.746-1.441.973-.563.234-1.199.352-1.91.352-.664 0-1.297-.106-1.899-.317-.601-.203-1.195-.488-1.781-.855-.578-.36-1.16-.793-1.746-1.301-.586-.5-1.196-1.043-1.828-1.629l-3.504-3.293h-.094v8.074h-1.945zm13.125 12.668c-.571 0-1.09-.09-1.559-.269-.469-.18-.875-.434-1.219-.762-.343-.32-.629-.707-.855-1.16-.219-.453-.375-.957-.469-1.512h-.07c-.172 1.383-.613 2.434-1.324 3.152-.704.719-1.621 1.079-2.754 1.079-.75 0-1.438-.129-2.063-.387-.625-.25-1.164-.633-1.617-1.149-.453-.515-.805-1.168-1.055-1.957-.25-.789-.375-1.722-.375-2.8 0-.852.067-1.657.2-2.414.132-.75.375-1.457.726-2.122h1.992c-.359.68-.636 1.415-.832 2.204-.195.796-.293 1.558-.293 2.285 0 .718.078 1.34.235 1.863.156.523.379.953.668 1.289.289.344.644.594 1.066.75.422.164.895.246 1.418.246.531 0 .984-.105 1.359-.316.383-.203.696-.496.938-.879.25-.383.433-.852.551-1.406.117-.547.175-1.168.175-1.864v-1.558h1.77v1.558c0 .633.078 1.196.234 1.688.157.492.379.902.668 1.23.289.336.633.59 1.032.762.398.172.836.258 1.312.258.406 0 .77-.07 1.09-.211.32-.141.59-.34.809-.598.226-.258.398-.566.515-.926.117-.359.176-.757.176-1.195 0-.836-.133-1.574-.399-2.215-.257-.633-.597-1.238-1.019-1.816l1.465-1.078c.242.297.469.625.679.984.211.367.395.766.551 1.195.164.43.293.887.387 1.372.094.492.141 1.011.141 1.558 0 .844-.106 1.582-.317 2.215-.211.641-.508 1.176-.89 1.605-.375.43-.825.754-1.348.973-.516.219-1.082.328-1.699.328zm-9.282 14.696v-2.497h-3.843v-2.062h3.843v-7.91h1.864l11.519 7.769v2.203h-11.437v2.497h-1.946zm1.946-4.559h4.172c.437 0 .894.004 1.371.012.484.015.953.031 1.406.047.461.015.891.031 1.289.046.398.024.731.039.996.047v-.105c-.156-.055-.332-.125-.527-.211-.188-.078-.379-.168-.574-.27-.188-.093-.372-.191-.551-.293-.18-.101-.332-.195-.457-.281l-7.125-4.816v5.824zM76.6977 24.9518v-6.6709h12.8496v6.6709h-1.4414v-5.0361h-3.9727v4.7021h-1.4238v-4.7021h-4.5703v5.0361h-1.4414zm9.8262 6.794c0 .1699-.0088.3603-.0264.5712-.0117.211-.0322.3926-.0615.545l-1.4766-.211c.0293-.164.0527-.334.0703-.5097.0235-.17.0352-.3311.0352-.4834 0-.3692-.0762-.7061-.2285-1.0108-.1465-.3047-.3604-.5683-.6416-.791-.2754-.2168-.6094-.3867-1.002-.5098-.3867-.1171-.8174-.1757-1.292-.1757h-5.2031V27.571h9.6504v1.3007l-1.7666.1934v.0703c.2519.1465.4951.3018.7295.4658.2343.1699.4394.3574.6152.5625.1816.211.3252.4453.4307.7032.1113.2578.167.5507.167.8789zM76.6977 36.36v-1.5996h9.6504V36.36h-9.6504zm12.2607-1.7226c.3516 0 .6065.0879.7647.2636.1582.1817.2373.4043.2373.668 0 .1289-.0205.249-.0615.3604-.0352.1171-.0938.2167-.1758.2988-.082.0879-.1875.1553-.3164.2021-.1231.0528-.2725.0791-.4483.0791-.3398 0-.5947-.0937-.7646-.2812-.1641-.1817-.2461-.4014-.2461-.6592 0-.2637.082-.4863.2461-.668.164-.1757.4189-.2636.7646-.2636zm-7.2773 6.2578l1.4941 1.1865 3.1729 2.5752v1.8545l-4.1748-3.5244-5.4756 3.7617v-1.8369l4.4297-2.9532-.7207-.958h-3.709v-1.582h13.6758v1.582h-6.2754l-2.417-.1406v.0352zm-2.3379 13.2275c-.4687 0-.8789-.0849-1.2305-.2549-.3515-.1699-.6474-.416-.8877-.7383-.2343-.3164-.4101-.7001-.5273-1.1513-.1172-.4512-.1758-.958-.1758-1.5205 0-.6387.0527-1.1866.1582-1.6436.0996-.457.249-.8584.4483-1.2041h1.4589c-.0937.1817-.1875.3838-.2812.6065-.0879.2226-.167.457-.2373.7031-.0703.2461-.1289.498-.1758.7558-.041.2637-.0615.5245-.0615.7823 0 .3808.0322.7031.0967.9668.0644.2695.1552.4863.2724.6504.1231.1699.2696.2929.4395.3691.1758.0762.3691.1143.5801.1143.1816 0 .3457-.0293.4921-.0879.1465-.0586.2901-.167.4307-.3252.1465-.1524.293-.3633.4395-.6328.1464-.2696.3105-.6153.4921-1.0371.1817-.4219.3604-.8028.5362-1.1426.1758-.334.372-.6182.5888-.8526.2168-.2343.4659-.416.7471-.5449.2871-.123.627-.1846 1.0195-.1846.4102 0 .7735.0791 1.0899.2373.3223.1641.5918.3926.8086.6856s.3808.6445.4922 1.0547c.1113.4101.167.8672.167 1.3711 0 .5683-.0616 1.0869-.1846 1.5556-.1231.4746-.2842.9229-.4834 1.3448l-1.292-.5537c.1699-.3809.3164-.7735.4395-1.1778.1289-.3984.1933-.8056.1933-1.2217 0-.5976-.0996-1.04-.2988-1.3271-.1934-.2871-.4717-.4307-.835-.4307-.2051 0-.3838.0323-.5361.0967-.1523.0703-.2959.1875-.4307.3516-.1347.164-.2724.3838-.4131.6591-.1347.2754-.2871.6182-.457 1.0284-.1758.4218-.3515.7968-.5273 1.125-.1758.334-.375.6181-.5977.8525-.2168.2344-.4658.4131-.7471.5361-.2812.1231-.6181.1846-1.0107.1846zm0 8.1211c-.4687 0-.8789-.085-1.2305-.2549-.3515-.1699-.6474-.416-.8877-.7383-.2343-.3164-.4101-.7002-.5273-1.1513-.1172-.4512-.1758-.958-.1758-1.5205 0-.6387.0527-1.1866.1582-1.6436.0996-.457.249-.8584.4483-1.2041h1.4589c-.0937.1817-.1875.3838-.2812.6065-.0879.2226-.167.457-.2373.7031-.0703.2461-.1289.498-.1758.7558-.041.2637-.0615.5245-.0615.7823 0 .3808.0322.7031.0967.9668.0644.2695.1552.4863.2724.6504.1231.1699.2696.2929.4395.3691.1758.0762.3691.1143.5801.1143.1816 0 .3457-.0293.4921-.0879.1465-.0586.2901-.167.4307-.3252.1465-.1524.293-.3633.4395-.6328.1464-.2696.3105-.6153.4921-1.0372.1817-.4218.3604-.8027.5362-1.1425.1758-.334.372-.6182.5888-.8526.2168-.2343.4659-.416.7471-.5449.2871-.123.627-.1846 1.0195-.1846.4102 0 .7735.0791 1.0899.2373.3223.1641.5918.3926.8086.6856s.3808.6445.4922 1.0547c.1113.4101.167.8672.167 1.3711 0 .5683-.0616 1.0869-.1846 1.5556-.1231.4746-.2842.9229-.4834 1.3448l-1.292-.5538c.1699-.3808.3164-.7734.4395-1.1777.1289-.3984.1933-.8057.1933-1.2217 0-.5976-.0996-1.04-.2988-1.3271-.1934-.2871-.4717-.4307-.835-.4307-.2051 0-.3838.0322-.5361.0967-.1523.0703-.2959.1875-.4307.3516-.1347.164-.2724.3838-.4131.6591-.1347.2754-.2871.6182-.457 1.0284-.1758.4218-.3515.7968-.5273 1.125-.1758.3339-.375.6181-.5977.8525-.2168.2344-.4658.4131-.7471.5361-.2812.1231-.6181.1846-1.0107.1846zm2.1973 10.2129c-.8028 0-1.5176-.0996-2.1446-.2988-.6211-.1934-1.1455-.4746-1.5732-.8438-.4219-.3633-.7441-.8056-.9668-1.3271s-.334-1.1075-.334-1.7578c0-.6036.1113-1.1602.334-1.67.2227-.5097.5449-.9521.9668-1.3271.4277-.3692.9521-.6592 1.5732-.8701.627-.2051 1.3418-.3076 2.1446-.3076.7968 0 1.5029.0966 2.1181.29.6211.1992 1.1426.4805 1.5645.8437.4277.3633.75.8057.9668 1.3272.2226.5273.334 1.1162.334 1.7666 0 .6035-.1114 1.1601-.334 1.6699-.2168.5098-.5391.9492-.9668 1.3184-.4219.375-.9434.665-1.5645.8701-.6152.2109-1.3213.3164-2.1181.3164zm0-6.75c-1.2246 0-2.1475.1992-2.7686.5977-.6152.4042-.9228 1.0576-.9228 1.9599 0 .9024.3076 1.5498.9228 1.9424.6211.3984 1.544.5977 2.7686.5977 1.2246 0 2.1386-.2022 2.7422-.6065.6093-.3984.914-1.0488.914-1.9512 0-.9023-.3047-1.5527-.914-1.9511-.6036-.3926-1.5176-.5889-2.7422-.5889zm-4.8428 15.3018h6.2139c.7617 0 1.333-.1553 1.7138-.4659.3809-.3047.5713-.7851.5713-1.4414 0-.4746-.0762-.873-.2285-1.1953-.1523-.3223-.3779-.583-.6768-.7822-.2988-.1934-.665-.334-1.0986-.4219-.4336-.082-.9316-.123-1.4941-.123h-5.001v-1.5996h9.6504v1.3007l-1.3008.2286v.0878c.252.1465.4688.3194.6504.5186.1875.2051.3428.4277.4658.668.1231.2402.2139.4951.2725.7646.0586.2695.0879.5449.0879.8262 0 1.0723-.2813 1.8779-.8438 2.417-.5566.5449-1.4502.8174-2.6806.8174h-6.3018v-1.5996zm-26-54.0528v-1.8545l6.1348-3.9638-1.002-1.2217h-5.1328v-1.6348h12.8496v1.6348h-6.4248l1.4766 1.0635 4.9482 3.9726v1.8369l-5.5986-4.5703-7.251 4.7373zm0 6.9697l1.3359-.3251v-.0704c-.2636-.1933-.4922-.3867-.6855-.58-.1875-.1934-.3428-.4043-.4658-.6329-.1231-.2285-.2139-.4834-.2725-.7646-.0586-.2813-.0879-.6064-.0879-.9756 0-.4043.0586-.7764.1758-1.1162.1113-.3398.2842-.6357.5185-.8877.2403-.2461.5391-.4394.8965-.5801.3633-.1406.791-.2109 1.2832-.2109.961 0 1.6993.3369 2.2149 1.0107.5156.6797.7969 1.711.8437 3.0938l.0616 1.6172h.6064c.3926 0 .7207-.044.9844-.1319.2636-.082.4746-.205.6328-.3691.164-.1582.2812-.3574.3515-.5977.0704-.2343.1055-.5039.1055-.8086 0-.4863-.0703-.9404-.2109-1.3623-.1406-.416-.3106-.8173-.5098-1.2041l1.2041-.5625c.2344.4336.4336.917.5977 1.4502.164.5332.2461 1.0928.2461 1.6787 0 .5977-.0616 1.1133-.1846 1.5469-.1172.4395-.3076.7998-.5713 1.0811-.2578.2871-.5889.501-.9932.6416-.4043.1406-.8935.2109-1.4677.2109h-6.6094v-1.1514zm1.1162-2.9355c0 .3574.0557.6885.167.9932.1113.3047.2783.5683.501.791.2285.2226.5127.3955.8525.5185.3457.1289.75.1934 1.2129.1934h.8701l-.0615-1.2568c-.0234-.5274-.082-.9698-.1758-1.3272-.0937-.3574-.2256-.6445-.3955-.8613-.1641-.211-.3662-.3633-.6064-.4571-.2344-.0937-.501-.1406-.7998-.1406-.5391 0-.9346.1406-1.1866.4219-.2519.2871-.3779.6621-.3779 1.125zm8.71 11.2324c0 .1699-.0088.3604-.0264.5713-.0117.2109-.0322.3926-.0615.5449l-1.4766-.2109c.0293-.1641.0527-.334.0703-.5098.0235-.1699.0352-.331.0352-.4834 0-.3691-.0762-.706-.2285-1.0107-.1465-.3047-.3604-.5684-.6416-.791-.2754-.2168-.6094-.3867-1.002-.5098-.3867-.1172-.8174-.1758-1.292-.1758h-5.2031v-1.5996h9.6504v1.3008l-1.7666.1934v.0703c.2519.1465.4951.3017.7295.4658.2343.1699.4394.3574.6152.5625.1816.2109.3252.4453.4307.7031.1113.2578.167.5508.167.8789zm-9.8262 4.6143V45.237h13.6758v1.5996H50.6977zm4.0869 2.25h1.4766v4.3594h-1.4766v-4.3594zm2.3555 17.3232c-.9903 0-1.8926-.1201-2.7071-.3603-.8144-.2344-1.5117-.586-2.0918-1.0547-.58-.4688-1.0283-1.0518-1.3447-1.749-.3164-.6914-.4746-1.4913-.4746-2.3995 0-.955.1582-1.7841.4746-2.4873.3164-.6972.7647-1.2773 1.3447-1.7402.5801-.457 1.2774-.7969 2.0918-1.0195.8204-.2227 1.7286-.334 2.7247-.334.996 0 1.8984.1113 2.707.334.8144.2226 1.5088.5654 2.083 1.0283.5742.4629 1.0166 1.0459 1.3271 1.749.3164.7031.4747 1.5322.4747 2.4873 0 .9082-.1583 1.7051-.4747 2.3906-.3105.6915-.7558 1.2715-1.3359 1.7403-.5742.4687-1.2686.8203-2.083 1.0547-.8086.2402-1.7139.3603-2.7158.3603zm0-9.4131c-.8028 0-1.5264.0762-2.1709.2286-.6387.1523-1.1836.3837-1.6348.6943-.4453.3164-.7881.7148-1.0283 1.1953-.2344.4863-.3516 1.0635-.3516 1.7314 0 .668.1172 1.2422.3516 1.7227.2402.4863.583.8848 1.0283 1.1953.4512.3164.9961.5479 1.6348.6943.6445.1465 1.3681.2198 2.1709.2198.8086 0 1.5322-.0733 2.1709-.2198.6386-.1464 1.1777-.375 1.6172-.6855.4453-.3105.7851-.7061 1.0195-1.1865.2402-.4805.3603-1.0547.3603-1.7227 0-.6679-.1201-1.2451-.3603-1.7314-.2344-.4864-.5742-.8877-1.0195-1.2041-.4395-.3164-.9786-.5508-1.6172-.7031-.6387-.1524-1.3623-.2286-2.1709-.2286zm-3.7969 17.833c-.4687 0-.8789-.0849-1.2305-.2548-.3515-.17-.6474-.4161-.8877-.7383-.2343-.3164-.4101-.7002-.5273-1.1514-.1172-.4512-.1758-.958-.1758-1.5205 0-.6387.0527-1.1865.1582-1.6436.0996-.457.249-.8583.4483-1.2041h1.4589c-.0937.1817-.1875.3838-.2812.6065-.0879.2226-.167.457-.2373.7031-.0703.2461-.1289.4981-.1758.7559-.041.2636-.0615.5244-.0615.7822 0 .3809.0322.7031.0967.9668.0644.2695.1552.4863.2724.6504.1231.1699.2696.293.4395.3691.1758.0762.3691.1143.5801.1143.1816 0 .3457-.0293.4921-.0879.1465-.0586.2901-.167.4307-.3252.1465-.1523.293-.3633.4395-.6328.1464-.2695.3105-.6152.4921-1.0371.1817-.4219.3604-.8028.5362-1.1426.1758-.334.372-.6182.5888-.8525.2168-.2344.4659-.4161.7471-.545.2871-.123.627-.1845 1.0195-.1845.4102 0 .7735.0791 1.0899.2373.3223.164.5918.3926.8086.6855.2168.293.3808.6446.4922 1.0547.1113.4102.167.8672.167 1.3711 0 .5684-.0616 1.0869-.1846 1.5557-.1231.4746-.2842.9228-.4834 1.3447l-1.292-.5537c.1699-.3809.3164-.7735.4395-1.1777.1289-.3985.1933-.8057.1933-1.2217 0-.5977-.0996-1.0401-.2988-1.3272-.1934-.2871-.4717-.4306-.835-.4306-.2051 0-.3838.0322-.5361.0966-.1523.0704-.2959.1875-.4307.3516-.1347.1641-.2724.3838-.4131.6592-.1347.2754-.2871.6181-.457 1.0283-.1758.4219-.3515.7969-.5273 1.125-.1758.334-.375.6182-.5977.8525-.2168.2344-.4658.4131-.7471.5362-.2812.123-.6181.1845-1.0107.1845zm2.3379 3.8233l1.4941 1.1865 3.1729 2.5752v1.8545l-4.1748-3.5244-5.4756 3.7617v-1.8369l4.4297-2.9531-.7207-.958h-3.709v-1.5821h13.6758v1.5821h-6.2754l-2.417-.1407v.0352zm-4.9834 12.8935l1.3359-.3252v-.0703c-.2636-.1933-.4922-.3867-.6855-.58-.1875-.1934-.3428-.4043-.4658-.6329-.1231-.2285-.2139-.4834-.2725-.7646-.0586-.2813-.0879-.6065-.0879-.9756 0-.4043.0586-.7764.1758-1.1162.1113-.3398.2842-.6357.5185-.8877.2403-.2461.5391-.4395.8965-.5801.3633-.1406.791-.2109 1.2832-.2109.961 0 1.6993.3369 2.2149 1.0107.5156.6797.7969 1.711.8437 3.0938l.0616 1.6172h.6064c.3926 0 .7207-.044.9844-.1319.2636-.082.4746-.205.6328-.3691.164-.1582.2812-.3574.3515-.5977.0704-.2343.1055-.5039.1055-.8086 0-.4863-.0703-.9404-.2109-1.3623-.1406-.416-.3106-.8173-.5098-1.2041l1.2041-.5625c.2344.4336.4336.917.5977 1.4502.164.5332.2461 1.0928.2461 1.6787 0 .5977-.0616 1.1133-.1846 1.5469-.1172.4395-.3076.7998-.5713 1.0811-.2578.2871-.5889.5009-.9932.6416-.4043.1406-.8935.2109-1.4677.2109h-6.6094v-1.1514zm1.1162-2.9355c0 .3574.0557.6885.167.9932.1113.3046.2783.5683.501.791.2285.2226.5127.3955.8525.5185.3457.1289.75.1934 1.2129.1934h.8701l-.0615-1.2568c-.0234-.5274-.082-.9698-.1758-1.3272-.0937-.3574-.2256-.6445-.3955-.8613-.1641-.211-.3662-.3633-.6064-.4571-.2344-.0937-.501-.1406-.7998-.1406-.5391 0-.9346.1406-1.1866.4219-.2519.2871-.3779.6621-.3779 1.125zm8.71 11.2324c0 .1696-.0088.3606-.0264.5716-.0117.211-.0322.392-.0615.545l-1.4766-.211c.0293-.164.0527-.334.0703-.51.0235-.17.0352-.3311.0352-.4835 0-.3691-.0762-.706-.2285-1.0107-.1465-.3047-.3604-.5684-.6416-.791-.2754-.2168-.6094-.3868-1.002-.5098-.3867-.1172-.8174-.1758-1.292-.1758h-5.2031v-1.5996h9.6504v1.3008l-1.7666.1934v.0703c.2519.1464.4951.3017.7295.4658.2343.1699.4394.3574.6152.5625.1816.2109.3252.4453.4307.7031.1113.2578.167.5508.167.8789zM24.6977 22.7809V21.234h8.833c.2871.0059.5713.0118.8525.0176.2871.0117.5596.0205.8174.0264.2637.0117.4951.0205.6944.0264-.1055-.0997-.1963-.1875-.2725-.2637-.0762-.0762-.1494-.1553-.2197-.2373-.0703-.0762-.1465-.1582-.2285-.2461-.0762-.0879-.167-.1934-.2725-.3164l-1.0635-1.3008 1.0811-.8438 2.6279 3.3663v1.3183H24.6977zm7.3652 12.7002c-.6152 0-1.2304-.0322-1.8457-.0967-.6094-.0586-1.1924-.167-1.749-.3252-.5566-.1523-1.0781-.3632-1.5645-.6328-.4804-.2695-.8964-.6123-1.248-1.0283-.3516-.416-.6299-.9141-.835-1.4941-.1992-.5801-.2988-1.2598-.2988-2.0391 0-.1113.0029-.2344.0088-.3691.0059-.1348.0176-.2696.0352-.4043.0117-.1348.0263-.2666.0439-.3955.0176-.129.041-.2432.0703-.3428h1.3711c-.0762.2051-.1318.4365-.167.6943-.0351.2578-.0527.5127-.0527.7647 0 .791.1377 1.4414.4131 1.9511.2754.5098.6474.9141 1.1162 1.2129.4746.2989 1.0254.5098 1.6523.6328.627.1289 1.2891.208 1.9864.2373v-.1142c-.211-.1172-.4073-.2578-.5889-.4219-.1817-.1641-.3399-.3574-.4746-.5801-.1348-.2226-.2403-.4746-.3164-.7558-.0762-.2813-.1143-.5948-.1143-.9405 0-.5566.085-1.0605.2549-1.5117.1758-.4511.4307-.8349.7646-1.1513.334-.3164.7413-.5625 1.2217-.7383.4863-.1699 1.0401-.2549 1.6612-.2549.6679 0 1.2685.0908 1.8017.2725.5391.1875.9932.4482 1.3623.7822.375.3398.6621.75.8613 1.2305.1993.4863.2989 1.0283.2989 1.6259 0 .5918-.1143 1.1426-.3428 1.6524-.2285.5097-.5771.9521-1.0459 1.3271-.4687.375-1.0605.6709-1.7754.8877-.709.2168-1.5439.3252-2.5049.3252zm4.3155-4.1748c0-.3516-.0586-.6738-.1758-.9668-.1172-.2871-.2989-.5361-.5449-.7471-.2461-.2109-.5567-.375-.9317-.4921-.3691-.1114-.8086-.167-1.3183-.167-.4102 0-.7793.0468-1.1075.1406-.3222.0996-.5976.2461-.8261.4394-.2286.1934-.4043.4336-.5274.7207-.123.293-.1846.6329-.1846 1.0196 0 .3984.0674.7588.2022 1.081.1406.3223.3193.5977.5361.8262.2227.2285.4746.4043.7559.5273.2812.1289.5625.1934.8437.1934.3926 0 .7823-.0557 1.169-.167.3926-.1055.7441-.2666 1.0547-.4834.3164-.2109.5713-.4775.7646-.7998.1934-.3223.2901-.6973.2901-1.125zm1.3711 10.0195c0 .4922-.0645.9551-.1934 1.3887-.1289.4395-.3223.8233-.5801 1.1514-.2578.334-.5801.5976-.9668.791-.3867.1934-.8379.29-1.3535.29-.3926 0-.7471-.0586-1.0635-.1758-.3164-.1171-.6035-.2783-.8613-.4833-.252-.2051-.4805-.4483-.6856-.7295-.1992-.2813-.3808-.586-.5449-.9141-.1816.3398-.3838.6709-.6064.9932-.2227.3281-.4746.6181-.7559.8701-.2754.2578-.5859.4629-.9316.6152-.3457.1582-.7324.2373-1.1602.2373-.539 0-1.0283-.0996-1.4677-.2988-.4336-.1934-.8028-.4688-1.1075-.8262-.3047-.3515-.539-.7764-.7031-1.2744-.1641-.4922-.2461-1.0371-.2461-1.6348 0-.6445.0791-1.2187.2373-1.7226.1582-.4981.3838-.9199.6768-1.2656.2988-.3399.6621-.6006 1.0898-.7823.4278-.1758.9112-.2636 1.4502-.2636.4395 0 .835.0644 1.1865.1933.3516.1348.668.3135.9493.5361.2812.2227.5302.4864.747.7911s.4073.6269.5713.9668c.1817-.2871.3779-.5567.5889-.8086.2168-.252.457-.4717.7207-.6592.2637-.1817.5537-.3281.8701-.4395.3223-.1054.6768-.1582 1.0635-.1582.5097 0 .9551.0967 1.3359.2901.3867.1992.709.4658.9668.7998.2578.334.4512.7177.5801 1.1513.1289.4395.1934.8965.1934 1.3711zm-9.7911-2.4609c-.3105 0-.5976.0469-.8613.1406-.2578.0938-.4805.2403-.668.4395-.1816.1992-.3252.4511-.4306.7558-.0996.3047-.1494.668-.1494 1.0899 0 .4101.0498.7705.1494 1.081.1054.3164.2519.5801.4394.7911.1934.2109.4248.3691.6944.4746.2695.1054.5683.1582.8964.1582.3047 0 .5801-.0586.8262-.1758.2461-.1113.4746-.2754.6856-.4922.2109-.2109.4101-.4658.5976-.7647.1875-.2988.3721-.6328.5537-1.0019l.1231-.2637c-.3516-.7383-.7559-1.2949-1.2129-1.6699-.4512-.375-.999-.5625-1.6436-.5625zm8.4551 2.4434c0-.6211-.1553-1.1163-.4658-1.4854-.3106-.3633-.7617-.5449-1.3535-.5449-.334 0-.6211.0498-.8614.1494-.2402.1055-.4541.249-.6416.4307-.1875.1816-.3574.3984-.5097.6504-.1465.2578-.2901.5361-.4307.8349.1289.2813.2695.5449.4219.791.1523.252.3252.4688.5185.6504.1934.1875.4131.334.6592.4395.2461.1054.5274.1582.8438.1582.5918 0 1.0429-.1846 1.3535-.5537.3105-.3692.4658-.876.4658-1.5205zm-11.7158 7.4355l11.3906 4.9482v-6.6269h1.459v8.2617h-1.2744l-11.5752-4.8779v-1.7051zm4.0869 8.165h1.4766v4.3594h-1.4766v-4.3594zm2.3555 14.1504c-1.0371 0-1.9658-.0761-2.7862-.2285-.8203-.1465-1.5146-.3867-2.083-.7207-.5683-.3281-1.0019-.7529-1.3007-1.2744-.2989-.5215-.4483-1.1543-.4483-1.8984 0-.6914.1494-1.295.4483-1.8106.2988-.5097.7324-.9346 1.3007-1.2744.5684-.334 1.2627-.5859 2.083-.7559.8204-.164 1.7491-.246 2.7862-.246s1.9658.0732 2.7861.2197c.8203.1523 1.5117.3896 2.0742.7119.5684.3281 1.002.75 1.3008 1.2656.2988.5215.4483 1.1514.4483 1.8897 0 .6972-.1495 1.3037-.4483 1.8193-.293.5156-.7236.9434-1.292 1.2832-.5625.3398-1.2539.5947-2.0742.7647-.8203.1699-1.752.2548-2.7949.2548zm0-6.583c-.8789 0-1.6465.044-2.3028.1319-.6562.0879-1.2041.2285-1.6435.4218-.4336.1934-.7617.4454-.9844.7559-.2168.3164-.3252.7002-.3252 1.1514 0 .4511.1084.8349.3252 1.1513s.542.5743.9756.7735c.4336.205.9785.3515 1.6348.4394.6621.0938 1.4355.1406 2.3203.1406.8789 0 1.6465-.0468 2.3027-.1406.6563-.0879 1.2012-.2344 1.6348-.4394.4336-.1992.7588-.4571.9756-.7735.2168-.3164.3252-.7002.3252-1.1513 0-.4512-.1084-.835-.3252-1.1514-.2168-.3105-.542-.5625-.9756-.7559-.4336-.1933-.9785-.3339-1.6348-.4218-.6562-.0879-1.4238-.1319-2.3027-.1319zm3.4013 15.8731c-.4277 0-.8173-.0674-1.1689-.2022-.3516-.1347-.6563-.3252-.9141-.5713-.2578-.2402-.4716-.5302-.6416-.8701-.164-.3398-.2812-.7178-.3515-1.1338h-.0528c-.1289 1.0371-.4599 1.8252-.9931 2.3643-.5274.5391-1.2158.8086-2.0655.8086-.5625 0-1.0781-.0967-1.5468-.2901-.4688-.1875-.8731-.4746-1.2129-.8613-.3399-.3867-.6035-.876-.791-1.4678s-.2813-1.292-.2813-2.1005c0-.6387.0498-1.2422.1494-1.8106.0996-.5625.2813-1.0928.5449-1.5908h1.4942c-.2695.5098-.4776 1.0605-.624 1.6523-.1465.5977-.2198 1.169-.2198 1.7139 0 .5391.0586 1.0049.1758 1.3975.1172.3925.2842.7148.501.9668.2168.2578.4834.4453.7998.5625.3164.123.6709.1845 1.0635.1845.3984 0 .7383-.0791 1.0195-.2373.2871-.1523.5215-.372.7031-.6592.1875-.2871.3252-.6386.4131-1.0546.0879-.4102.1319-.876.1319-1.3975v-1.169h1.3271v1.169c0 .4746.0586.8965.1758 1.2656.1172.3692.2842.6768.501.9229.2168.2519.4746.4424.7734.5713.2988.1289.627.1933.9844.1933.3047 0 .5771-.0527.8174-.1582.2402-.1055.4423-.2549.6064-.4482.1699-.1934.2988-.4248.3867-.6944.0879-.2695.1319-.5683.1319-.8964 0-.627-.0997-1.1807-.2989-1.6612-.1933-.4746-.4482-.9287-.7646-1.3623l1.0986-.8086c.1817.2227.3516.4688.5098.7383.1582.2754.2959.5742.4131.8965.123.3223.2197.665.29 1.0283.0703.3691.1055.7588.1055 1.169 0 .6328-.0791 1.1865-.2373 1.6611-.1582.4805-.3809.8818-.668 1.2041-.2813.3223-.6182.5654-1.0107.7295-.3868.164-.8116.2461-1.2745.2461zm-5.7568 2.1885h1.4766v4.3593h-1.4766v-4.3593zm-4.0869 13.9394v-8.0156h1.3711l3.3486 3.0762c.4746.4394.9082.832 1.3008 1.1777.3926.3457.7764.6387 1.1514.8789.375.2461.75.4336 1.125.5625.3808.1289.7939.1934 1.2392.1934.3457 0 .6504-.0499.9141-.1495.2637-.0996.4863-.2431.668-.4306.1875-.1817.3281-.3985.4218-.6504.0938-.252.1407-.5332.1407-.8438 0-.5566-.1143-1.0605-.3428-1.5117-.2227-.4453-.5098-.8701-.8613-1.2744l1.0459-.8965c.2109.2344.4072.4863.5888.7559.1875.2695.3487.5595.4834.8701.1348.3105.2403.6387.3164.9844.0821.3457.1231.709.1231 1.0898 0 .5625-.0791 1.0693-.2373 1.5205-.1582.457-.3868.8438-.6856 1.1602-.2929.3164-.6533.5595-1.081.7295-.4219.1757-.8994.2636-1.4327.2636-.498 0-.9726-.0791-1.4238-.2373-.4512-.1523-.8965-.3662-1.3359-.6416-.4336-.2695-.8701-.5947-1.3096-.9756-.4394-.375-.8965-.7822-1.3711-1.2216l-2.6279-2.4698h-.0703v6.0557h-1.459zm2.8828 10.6088v-1.872h-2.8828v-1.547h2.8828v-5.933h1.3975l8.6396 5.827v1.653h-8.5781v1.872h-1.459zm1.459-3.419h3.1289c.3281 0 .6709.003 1.0283.008.3633.012.7149.024 1.0547.036.3457.011.668.023.9668.035.2988.017.5479.029.7471.035v-.079c-.1172-.041-.2491-.094-.3955-.158-.1407-.059-.2842-.126-.4307-.203-.1406-.07-.2783-.143-.4131-.219-.1348-.076-.249-.147-.3428-.211l-5.3437-3.6125v4.3685zM260.389 327.532c-.347 0-.659-.063-.935-.188-.272-.122-.503-.297-.692-.526-.19-.23-.335-.509-.435-.838-.097-.33-.145-.7-.145-1.112 0-.398.032-.77.096-1.117.061-.344.152-.632.274-.865h.956c-.057.122-.114.259-.172.413-.053.158-.102.323-.145.495-.043.171-.078.349-.107.531-.025.183-.038.364-.038.543 0 .573.108.995.323 1.267.214.276.522.414.923.414.194 0 .362-.027.505-.081.143-.05.274-.141.392-.274.122-.128.238-.302.349-.521.115-.218.239-.494.371-.827.125-.318.261-.596.408-.832.151-.233.319-.426.505-.58.186-.151.398-.263.634-.339.236-.071.505-.107.806-.107.315 0 .596.057.843.172.247.114.455.276.623.483.172.208.302.455.392.741.09.29.134.609.134.956 0 .427-.041.81-.123 1.15-.079.34-.181.643-.306.908l-.838-.36c.104-.233.193-.498.268-.795.079-.294.118-.598.118-.913 0-.437-.102-.776-.306-1.015-.2-.24-.472-.36-.816-.36-.204 0-.381.027-.532.08-.147.054-.281.144-.403.269-.118.125-.231.29-.338.494-.104.208-.215.462-.333.763-.129.326-.261.61-.398.854-.136.247-.29.453-.461.617-.172.165-.371.289-.597.371-.225.086-.492.129-.8.129zm-2.1 3.867v-1.004h6.972v-2.245h.88v5.489h-.88v-2.24h-6.972zm7.863 9.045h-5.092c-.408 0-.787-.059-1.138-.177-.351-.118-.656-.297-.913-.537-.258-.237-.46-.536-.607-.897-.147-.358-.22-.781-.22-1.268 0-.458.068-.863.204-1.214.139-.351.336-.646.59-.886.255-.236.559-.415.914-.537.358-.122.755-.183 1.192-.183h5.059v1.005h-5.113c-.626 0-1.112.154-1.455.462-.344.311-.516.78-.516 1.407 0 .318.048.592.145.822.097.229.233.417.408.564.176.146.385.256.629.327.243.072.51.109.8.113h5.113v.999zm-3.862 7.847c-.662 0-1.244-.086-1.745-.258-.498-.172-.915-.42-1.252-.746-.333-.326-.583-.727-.752-1.203-.168-.473-.252-1.01-.252-1.612v-1.966h7.852v2.187c0 .547-.082 1.043-.247 1.487-.164.444-.41.822-.735 1.134-.323.311-.724.551-1.204.719-.479.172-1.034.258-1.665.258zm-.032-1.058c.523 0 .974-.059 1.354-.177.383-.118.698-.29.945-.516.247-.225.43-.503.548-.832.122-.33.182-.704.182-1.123v-1.08h-6.139v.871c0 .945.262 1.657.784 2.137.523.48 1.299.72 2.326.72zm-3.969 6.88v-4.076h7.852v4.076h-.88v-3.077h-2.428v2.873h-.87v-2.873h-2.793v3.077h-.881zm0 7.617v-1.155l6.499-3.862v-.043c-.276.022-.55.039-.822.054-.233.014-.476.025-.73.032-.255.011-.484.016-.688.016h-4.259v-.924h7.852v1.144l-6.466 3.846v.038c.272-.011.54-.024.805-.038.115-.004.231-.009.349-.016.122-.004.242-.009.36-.016.122-.004.238-.007.349-.011H266.141v.935h-7.852zm0 4.431v-1.005h6.972v-2.245h.88v5.49h-.88v-2.24h-6.972zm0 8.502v-2.846h.548l.22.923h6.316l.221-.923h.547v2.846h-.547l-.221-.924h-6.316l-.22.924h-.548zm4.001 7.294c-.662 0-1.244-.086-1.745-.258-.498-.172-.915-.42-1.252-.746-.333-.326-.583-.727-.752-1.203-.168-.473-.252-1.01-.252-1.612v-1.966h7.852v2.187c0 .547-.082 1.043-.247 1.487-.164.444-.41.822-.735 1.134-.323.311-.724.551-1.204.719-.479.172-1.034.258-1.665.258zm-.032-1.058c.523 0 .974-.059 1.354-.177.383-.118.698-.29.945-.516.247-.225.43-.503.548-.832.122-.33.182-.704.182-1.123v-1.079h-6.139v.87c0 .945.262 1.658.784 2.137.523.48 1.299.72 2.326.72zm-3.373 2.524c.136 0 .251.018.344.054.097.036.174.084.231.145.061.061.104.133.129.215.028.082.043.172.043.269 0 .093-.015.18-.043.263-.025.086-.068.159-.129.22-.057.061-.134.109-.231.145-.093.036-.208.054-.344.054-.132 0-.247-.018-.344-.054-.093-.036-.17-.084-.231-.145-.06-.061-.105-.134-.134-.22-.028-.083-.043-.17-.043-.263 0-.097.015-.187.043-.269.029-.082.074-.154.134-.215.061-.061.138-.109.231-.145.097-.036.212-.054.344-.054zm4.705 0c.14 0 .256.018.349.054.097.036.174.084.231.145.061.061.104.133.129.215.025.082.038.172.038.269 0 .093-.013.18-.038.263-.025.086-.068.159-.129.22-.057.061-.134.109-.231.145-.093.036-.209.054-.349.054-.132 0-.245-.018-.338-.054-.093-.036-.17-.084-.231-.145-.061-.061-.106-.134-.134-.22-.029-.083-.043-.17-.043-.263 0-.097.014-.187.043-.269.028-.082.073-.154.134-.215.061-.061.138-.109.231-.145.093-.036.206-.054.338-.054zm-1.364 10.565c-.634 0-1.201-.046-1.703-.139-.501-.09-.925-.237-1.273-.441-.347-.2-.612-.46-.795-.778-.182-.319-.273-.706-.273-1.161 0-.422.091-.791.273-1.106.183-.312.448-.571.795-.779.348-.204.772-.358 1.273-.462.502-.1 1.069-.15 1.703-.15.634 0 1.201.045 1.703.134.501.093.923.238 1.267.435.347.201.612.458.795.774.183.318.274.703.274 1.154 0 .426-.091.797-.274 1.112-.179.315-.442.577-.789.784-.344.208-.767.364-1.268.468-.501.103-1.071.155-1.708.155zm0-4.023c-.537 0-1.006.027-1.407.081-.401.054-.736.14-1.005.258-.265.118-.465.272-.601.462-.133.193-.199.428-.199.703 0 .276.066.511.199.704.132.193.331.351.596.473.265.125.598.214.999.268.405.057.877.086 1.418.086.537 0 1.006-.029 1.407-.086.401-.054.734-.143.999-.268.265-.122.464-.28.596-.473.133-.193.199-.428.199-.704 0-.275-.066-.51-.199-.703-.132-.19-.331-.344-.596-.462-.265-.118-.598-.204-.999-.258-.401-.054-.87-.081-1.407-.081zm-.58 5.146c.376 0 .75.018 1.122.054.373.039.729.105 1.069.198.344.097.663.228.956.392.294.165.548.375.763.629.218.254.389.559.51.913.126.354.188.77.188 1.246 0 .068-.002.143-.005.226-.004.082-.011.164-.022.247-.007.086-.017.166-.032.241-.011.079-.025.149-.043.21h-.832c.043-.125.075-.267.096-.424.022-.158.033-.314.033-.468 0-.322-.04-.607-.119-.854-.075-.243-.182-.454-.322-.633-.139-.18-.306-.33-.499-.452-.194-.118-.409-.214-.645-.29-.233-.075-.481-.13-.746-.166-.265-.036-.541-.059-.828-.07v.064c.129.072.249.158.36.258.115.104.212.224.29.36.083.136.147.288.194.457.046.172.069.363.069.574 0 .341-.053.648-.161.924-.103.276-.257.51-.462.704-.204.193-.454.342-.752.446-.293.107-.63.161-1.009.161-.408 0-.776-.056-1.101-.167-.326-.111-.604-.27-.833-.478-.225-.207-.399-.458-.521-.752-.122-.293-.182-.623-.182-.988 0-.358.069-.695.209-1.01.14-.311.353-.582.639-.811.287-.229.646-.41 1.08-.542.433-.133.945-.199 1.536-.199zm-2.643 2.551c0 .215.036.41.108.586.075.179.186.333.333.462.15.129.338.227.564.295.229.072.499.107.811.107.25 0 .474-.03.671-.091.201-.057.371-.145.51-.263.14-.118.247-.267.323-.446.075-.175.112-.381.112-.618 0-.239-.043-.46-.128-.66-.083-.197-.192-.365-.328-.505-.133-.14-.285-.249-.457-.328-.172-.075-.343-.112-.515-.112-.24 0-.48.032-.72.096-.236.068-.449.167-.639.296-.19.132-.346.297-.467.494-.119.197-.178.426-.178.687zm7.262 5.935c0 .301-.039.584-.118.849-.079.268-.197.503-.355.704-.157.204-.354.365-.59.483-.237.118-.513.177-.828.177-.24 0-.456-.036-.65-.107-.193-.072-.368-.17-.526-.296-.154-.125-.293-.274-.419-.445-.122-.172-.233-.359-.333-.559-.111.208-.234.41-.37.607-.137.2-.29.378-.462.532-.169.157-.358.283-.57.376-.211.096-.447.145-.709.145-.329 0-.628-.061-.897-.183-.265-.118-.49-.286-.676-.505-.187-.215-.33-.474-.43-.779-.1-.3-.15-.633-.15-.999 0-.394.048-.745.145-1.052.096-.305.234-.563.413-.774.183-.208.405-.367.666-.478.262-.107.557-.161.886-.161.269 0 .511.039.725.118.215.082.409.192.581.328.171.136.324.297.456.483.133.186.249.383.349.591.111-.175.231-.34.36-.494.133-.154.279-.288.44-.403.162-.111.339-.201.532-.269.197-.064.414-.096.65-.096.312 0 .584.059.817.177.236.122.433.285.59.489.158.204.276.438.355.703.079.269.118.548.118.838zm-5.983-1.504c-.19 0-.366.029-.527.086-.157.058-.293.147-.408.269-.111.122-.199.276-.263.462-.061.186-.091.408-.091.666 0 .25.03.471.091.66.064.194.154.355.268.484.119.129.26.225.425.29.164.064.347.097.548.097.186 0 .354-.036.504-.108.151-.068.291-.168.419-.301.129-.129.251-.284.366-.467.114-.183.227-.387.338-.612l.075-.161c-.215-.452-.462-.792-.741-1.021-.276-.229-.611-.344-1.004-.344zm5.167 1.494c0-.38-.095-.683-.285-.908-.19-.222-.466-.333-.827-.333-.204 0-.38.03-.527.091-.146.065-.277.152-.392.263-.114.111-.218.244-.311.398-.09.157-.177.327-.263.51.078.172.164.333.257.483.094.154.199.287.317.398.118.114.253.204.403.268.151.065.322.097.516.097.361 0 .637-.113.827-.338.19-.226.285-.536.285-.929zm.816 6.069c0 .301-.039.584-.118.849-.079.268-.197.503-.355.703-.157.204-.354.365-.59.484-.237.118-.513.177-.828.177-.24 0-.456-.036-.65-.108-.193-.071-.368-.17-.526-.295-.154-.125-.293-.274-.419-.446-.122-.172-.233-.358-.333-.558-.111.207-.234.41-.37.606-.137.201-.29.378-.462.532-.169.158-.358.283-.57.376-.211.097-.447.145-.709.145-.329 0-.628-.061-.897-.182-.265-.119-.49-.287-.676-.505-.187-.215-.33-.475-.43-.779-.1-.301-.15-.634-.15-.999 0-.394.048-.745.145-1.053.096-.304.234-.562.413-.773.183-.208.405-.367.666-.478.262-.108.557-.161.886-.161.269 0 .511.039.725.118.215.082.409.191.581.327.171.136.324.298.456.484.133.186.249.383.349.591.111-.176.231-.341.36-.495.133-.154.279-.288.44-.402.162-.111.339-.201.532-.269.197-.064.414-.097.65-.097.312 0 .584.059.817.178.236.121.433.284.59.488.158.204.276.439.355.704.079.269.118.548.118.838zm-5.983-1.504c-.19 0-.366.029-.527.086-.157.057-.293.147-.408.268-.111.122-.199.276-.263.462-.061.187-.091.409-.091.666 0 .251.03.471.091.661.064.193.154.355.268.483.119.129.26.226.425.29.164.065.347.097.548.097.186 0 .354-.036.504-.107.151-.068.291-.169.419-.301.129-.129.251-.285.366-.467.114-.183.227-.387.338-.613l.075-.161c-.215-.451-.462-.791-.741-1.02-.276-.229-.611-.344-1.004-.344zm5.167 1.493c0-.379-.095-.682-.285-.908-.19-.222-.466-.333-.827-.333-.204 0-.38.031-.527.092-.146.064-.277.152-.392.263-.114.111-.218.243-.311.397-.09.158-.177.328-.263.511.078.172.164.333.257.483.094.154.199.286.317.397.118.115.253.205.403.269.151.064.322.097.516.097.361 0 .637-.113.827-.339.19-.225.285-.535.285-.929zm-2.342 5.962c0 .355-.05.684-.151.988-.096.308-.241.575-.435.801-.193.229-.433.408-.719.537-.287.129-.618.193-.994.193-.408 0-.775-.061-1.101-.183-.326-.121-.602-.302-.827-.542-.226-.24-.399-.537-.521-.892-.118-.351-.177-.755-.177-1.213 0-.183.008-.364.026-.543.018-.175.045-.345.081-.51.032-.161.075-.315.129-.462.054-.147.116-.279.188-.398h.924c-.083.119-.156.256-.221.414-.064.161-.118.329-.161.505-.043.175-.077.351-.102.526-.021.179-.032.344-.032.494 0 .283.032.536.097.758.068.222.172.41.311.564.14.154.315.272.527.354.211.083.462.124.752.124.512 0 .902-.158 1.17-.473.273-.315.409-.773.409-1.375 0-.097-.006-.202-.016-.317-.008-.111-.018-.224-.033-.338-.014-.111-.03-.219-.048-.322-.014-.101-.029-.188-.043-.264l.306-.483 3.695.295v3.706h-.891v-2.857l-2.251-.21c.022.115.045.265.07.452.025.189.038.413.038.671zm-4.818 6.95v-.945h5.398c.175.004.349.007.521.011.175.007.342.012.499.016.162.007.303.012.425.016-.065-.061-.12-.115-.167-.161-.046-.047-.091-.095-.134-.145-.043-.047-.09-.097-.14-.151-.046-.053-.102-.118-.166-.193l-.65-.795.661-.516 1.605 2.058v.805h-7.852zm1.762 8.078v-1.144h-1.762v-.945h1.762v-3.625h.854l5.279 3.561v1.009h-5.242v1.144h-.891zm.891-2.089h1.912c.201 0 .41.002.629.005.222.008.437.015.644.022.212.007.409.014.591.021.183.011.335.018.457.022v-.048c-.072-.026-.152-.058-.242-.097-.086-.036-.174-.077-.263-.124-.086-.043-.17-.087-.253-.134-.082-.047-.152-.09-.209-.129l-3.266-2.207v2.669zm-2.653 7.724v-4.899h.838l2.046 1.88c.29.269.555.509.795.72.24.211.475.39.704.537.229.15.458.265.687.344.233.078.485.118.758.118.211 0 .397-.031.558-.091.161-.061.297-.149.408-.264.115-.111.201-.243.258-.397.057-.154.086-.326.086-.516 0-.34-.07-.648-.209-.924-.136-.272-.312-.531-.527-.778l.639-.548c.129.143.249.297.36.462.115.164.213.342.296.531.082.19.147.391.193.602.05.211.075.433.075.666 0 .344-.048.653-.145.929-.096.28-.236.516-.419.709-.179.194-.399.342-.66.446-.258.107-.55.161-.876.161-.304 0-.594-.048-.87-.145-.276-.093-.548-.224-.816-.392-.265-.165-.532-.363-.801-.596-.268-.229-.547-.478-.838-.747l-1.605-1.509h-.043v3.701h-.892zm-13.47-60.503l3.609 1.66v.976l-4.361-2.177h-2.778v-.913h2.729l4.41-2.178v.991l-3.609 1.641zm1.929 5.508c0 .094-.005.2-.015.317-.006.117-.018.218-.034.303l-.82-.118c.016-.091.029-.185.039-.283.013-.094.019-.184.019-.268 0-.205-.042-.393-.127-.562-.081-.169-.2-.316-.356-.439-.153-.121-.339-.215-.557-.283-.215-.066-.454-.098-.717-.098h-2.891v-.889h5.361v.723l-.981.107v.039c.14.082.275.168.405.259.13.095.244.199.342.313.101.117.181.247.239.39.062.143.093.306.093.489zm-2.691 2.495l.831.659 1.762 1.43v1.031l-2.319-1.958-3.042 2.09v-1.021l2.461-1.641-.401-.532h-2.06v-.879h7.598v.879H245.4l-1.343-.078v.02zm-2.866 6.259c0-.358.061-.685.181-.981.12-.296.296-.552.527-.767.231-.211.518-.376.86-.493.341-.117.732-.176 1.172-.176.442 0 .838.054 1.186.162.348.107.643.258.884.454.244.195.43.428.556.698.127.273.191.574.191.903 0 .322-.059.612-.176.869-.114.258-.277.476-.488.655-.208.179-.461.315-.757.41-.293.097-.618.146-.977.146h-.551v-3.379c-.629.017-1.091.149-1.387.396-.296.251-.444.622-.444 1.113 0 .166.008.319.024.459.016.143.039.28.068.41.033.134.072.262.118.386.048.124.102.249.161.376h-.791c-.062-.13-.116-.259-.161-.386-.046-.123-.083-.252-.113-.385-.029-.131-.05-.267-.063-.411-.013-.14-.02-.293-.02-.459zm4.82-.219c0-.371-.127-.666-.381-.884-.254-.215-.624-.34-1.109-.376v2.402c.222 0 .424-.023.606-.068.185-.042.343-.111.473-.205.131-.091.232-.209.303-.352.072-.143.108-.315.108-.517zm-3.252 6.66c-.261 0-.489-.047-.684-.142-.195-.094-.36-.231-.493-.41-.13-.176-.228-.389-.293-.64-.065-.25-.098-.532-.098-.844 0-.355.03-.659.088-.913.056-.254.139-.477.249-.669h.811c-.052.101-.104.213-.157.337-.048.123-.092.254-.131.39-.039.137-.072.277-.098.42-.023.147-.034.291-.034.435 0 .211.018.39.054.537.035.15.086.27.151.361.068.095.15.163.244.205.098.043.205.064.322.064.101 0 .192-.017.274-.049.081-.033.161-.093.239-.181.081-.084.163-.202.244-.351.082-.15.173-.342.274-.577.1-.234.2-.445.297-.634.098-.186.207-.344.328-.474.12-.13.258-.231.415-.303.159-.068.348-.102.566-.102.228 0 .43.044.605.132.18.091.329.218.45.381.12.162.211.358.273.585.062.228.093.482.093.762 0 .316-.034.604-.103.864-.068.264-.157.513-.268.747l-.718-.307c.094-.212.176-.43.244-.654.072-.222.108-.448.108-.679 0-.332-.056-.578-.166-.737-.108-.16-.262-.24-.464-.24-.114 0-.213.018-.298.054-.085.039-.165.104-.239.195-.075.091-.152.214-.23.367-.075.153-.159.343-.254.571-.097.234-.195.443-.293.625-.097.185-.208.343-.332.473-.12.131-.259.23-.415.298-.156.069-.343.103-.561.103zm-1.47 4.653h3.452c.423 0 .741-.086.952-.259.212-.169.318-.436.318-.8 0-.264-.043-.485-.127-.664-.085-.18-.21-.324-.376-.435-.166-.107-.37-.186-.611-.234-.241-.046-.517-.069-.83-.069h-2.778v-.888h7.598v.888h-2.256l-.703-.039v.049c.14.081.26.177.361.288.104.114.19.238.259.371.068.134.119.275.151.425.033.15.049.303.049.459 0 .596-.156 1.043-.469 1.343-.309.302-.805.454-1.489.454h-3.501v-.889zm2.69 6.909c-.446 0-.843-.055-1.191-.166-.345-.107-.636-.263-.874-.468-.234-.202-.413-.448-.537-.738-.124-.289-.186-.615-.186-.976 0-.336.062-.645.186-.928.124-.283.303-.529.537-.737.238-.205.529-.367.874-.484.348-.114.745-.171 1.191-.171.443 0 .835.054 1.177.162.345.11.635.266.869.468.238.202.417.448.537.738.124.293.186.62.186.981 0 .335-.062.645-.186.928-.12.283-.299.527-.537.732-.234.209-.524.37-.869.484-.342.117-.734.175-1.177.175zm0-3.75c-.68 0-1.193.111-1.538.332-.342.225-.512.588-.512 1.089 0 .502.17.861.512 1.079.345.222.858.332 1.538.332.681 0 1.189-.112 1.524-.337.338-.221.508-.582.508-1.084 0-.501-.17-.862-.508-1.084-.335-.218-.843-.327-1.524-.327zm4.121-.005c.176 0 .303.046.381.137.078.091.118.202.118.332 0 .127-.041.238-.123.332-.078.095-.203.142-.376.142-.172 0-.299-.047-.38-.142-.082-.094-.122-.205-.122-.332 0-.13.04-.241.122-.332.081-.091.208-.137.38-.137zm0 1.832c.176 0 .303.045.381.136.078.091.118.202.118.332 0 .062-.01.121-.03.176-.019.059-.05.109-.093.151-.039.043-.089.077-.151.103-.062.026-.137.039-.225.039-.172 0-.299-.047-.38-.142-.082-.094-.122-.203-.122-.327 0-.13.04-.241.122-.332.081-.091.208-.136.38-.136zm-1.45 7.456h-.551l-.132-.962c-.114.091-.261.167-.44.229-.176.062-.376.093-.6.093-.248 0-.477-.039-.689-.117-.208-.075-.389-.191-.542-.347-.153-.153-.273-.343-.361-.571-.085-.228-.127-.493-.127-.796v-.215c.003-.072.01-.13.019-.176-.032-.055-.07-.11-.112-.166-.039-.052-.085-.101-.137-.146-.052-.043-.11-.078-.175-.108-.065-.026-.137-.039-.215-.039-.088 0-.16.02-.215.059-.052.039-.093.091-.122.156-.029.068-.049.148-.059.239-.01.092-.014.188-.014.288v.86c0 .303-.039.558-.118.766-.074.209-.177.378-.307.508-.13.134-.285.23-.464.288-.176.059-.363.088-.562.088-.286 0-.543-.053-.771-.161-.228-.104-.42-.265-.576-.483-.16-.218-.282-.495-.366-.83-.085-.332-.127-.725-.127-1.177 0-.348.034-.653.102-.913.068-.261.168-.477.298-.65.13-.172.288-.302.474-.39.182-.085.389-.127.62-.127.195 0 .368.031.517.093.147.065.274.151.381.258.108.108.195.231.264.371.068.144.12.292.156.445.062-.137.16-.249.293-.337.134-.088.287-.132.459-.132.199 0 .37.052.513.156.146.104.288.269.425.493.058-.14.138-.268.239-.385.104-.114.221-.212.351-.293.134-.078.279-.14.435-.186.156-.042.317-.063.483-.063.29 0 .549.04.777.122.228.081.421.202.581.361.159.16.281.358.366.596.085.237.127.514.127.83 0 .12-.01.244-.029.371-.017.13-.039.239-.069.327v1.773zm-6.24-3.96c-.12 0-.233.021-.337.063-.104.042-.194.111-.268.205-.075.098-.134.225-.176.381-.046.16-.069.356-.069.591 0 .605.095 1.058.284 1.357.185.303.454.454.805.454.15 0 .272-.019.367-.058.094-.039.169-.104.224-.196.052-.087.088-.205.108-.351.019-.147.029-.326.029-.537v-.86c0-.114-.013-.232-.039-.356-.026-.124-.075-.238-.147-.342-.071-.101-.169-.185-.293-.254-.127-.065-.289-.097-.488-.097zm4.517.449c-.375 0-.653.088-.835.264-.183.175-.274.424-.274.747 0 .325.09.571.269.737.182.169.467.254.854.254.401 0 .695-.086.884-.259.189-.169.283-.417.283-.742 0-.322-.097-.57-.293-.742-.195-.173-.491-.259-.888-.259zm-2.168 7.773c-.261 0-.489-.047-.684-.141-.195-.095-.36-.231-.493-.41-.13-.176-.228-.389-.293-.64-.065-.251-.098-.532-.098-.845 0-.355.03-.659.088-.913.056-.254.139-.477.249-.669h.811c-.052.101-.104.213-.157.337-.048.124-.092.254-.131.391-.039.136-.072.276-.098.42-.023.146-.034.291-.034.434 0 .212.018.391.054.537.035.15.086.27.151.362.068.094.15.162.244.205.098.042.205.063.322.063.101 0 .192-.016.274-.049.081-.032.161-.092.239-.18.081-.085.163-.202.244-.352.082-.15.173-.342.274-.576.1-.234.2-.446.297-.635.098-.185.207-.343.328-.473.12-.131.258-.232.415-.303.159-.069.348-.103.566-.103.228 0 .43.044.605.132.18.091.329.218.45.381.12.163.211.358.273.586.062.228.093.482.093.762 0 .315-.034.603-.103.864-.068.264-.157.513-.268.747l-.718-.308c.094-.211.176-.429.244-.654.072-.221.108-.448.108-.679 0-.332-.056-.578-.166-.737-.108-.16-.262-.239-.464-.239-.114 0-.213.018-.298.053-.085.039-.165.105-.239.196-.075.091-.152.213-.23.366-.075.153-.159.343-.254.571-.097.235-.195.443-.293.625-.097.186-.208.344-.332.474-.12.13-.259.229-.415.298-.156.068-.343.102-.561.102zm1.298 2.124l.831.659 1.762 1.431v1.03l-2.319-1.958-3.042 2.09v-1.02l2.461-1.641-.401-.532h-2.06v-.879h7.598v.879H245.4l-1.343-.078v.019zm-.078 8.511c-.446 0-.843-.055-1.191-.166-.345-.107-.636-.264-.874-.469-.234-.202-.413-.447-.537-.737-.124-.29-.186-.615-.186-.977 0-.335.062-.644.186-.927.124-.284.303-.529.537-.738.238-.205.529-.366.874-.483.348-.114.745-.171 1.191-.171.443 0 .835.054 1.177.161.345.111.635.267.869.469.238.202.417.448.537.737.124.293.186.62.186.982 0 .335-.062.644-.186.927-.12.284-.299.528-.537.733-.234.208-.524.369-.869.483-.342.117-.734.176-1.177.176zm0-3.75c-.68 0-1.193.111-1.538.332-.342.225-.512.588-.512 1.089s.17.861.512 1.079c.345.221.858.332 1.538.332.681 0 1.189-.112 1.524-.337.338-.221.508-.583.508-1.084 0-.501-.17-.862-.508-1.084-.335-.218-.843-.327-1.524-.327zm-2.69 6.04v-.889h7.598v.889h-7.598zm0 4.722l.742-.181v-.039c-.146-.107-.273-.215-.381-.322-.104-.108-.19-.225-.259-.352-.068-.127-.118-.268-.151-.425-.032-.156-.049-.337-.049-.542 0-.224.033-.431.098-.62.062-.189.158-.353.288-.493.133-.137.3-.244.498-.322.202-.078.44-.117.713-.117.534 0 .944.187 1.23.561.287.378.443.951.469 1.719l.034.898h.337c.218 0 .401-.024.547-.073.147-.045.264-.114.352-.205.091-.088.156-.199.195-.332.039-.13.059-.28.059-.449 0-.27-.039-.523-.118-.757-.078-.231-.172-.454-.283-.669l.669-.312c.13.24.241.509.332.805.091.296.137.607.137.933 0 .332-.034.618-.103.859-.065.244-.171.445-.317.601-.143.159-.327.278-.552.356-.224.078-.496.117-.815.117h-3.672v-.639zm.62-1.631c0 .198.031.382.093.552.062.169.154.315.278.439.127.124.285.22.474.288.192.072.416.108.674.108h.483l-.034-.699c-.013-.293-.046-.538-.098-.737-.052-.199-.125-.358-.22-.478-.091-.118-.203-.202-.336-.254-.131-.052-.279-.078-.445-.078-.299 0-.519.078-.659.234-.14.159-.21.368-.21.625zM146.587 358.645c-.482 0-.905-.063-1.27-.188-.362-.125-.665-.306-.91-.543-.242-.237-.425-.528-.547-.875-.122-.344-.184-.734-.184-1.172v-1.429h5.711v1.589c0 .399-.06.76-.179 1.082-.12.323-.299.598-.536.825-.234.226-.526.401-.875.523-.349.125-.752.188-1.21.188zm-.024-.77c.38 0 .708-.043.984-.129.279-.086.508-.211.688-.375.18-.164.312-.366.398-.605.089-.24.133-.512.133-.817v-.785h-4.465v.633c0 .687.19 1.206.571 1.555.38.349.944.523 1.691.523zm-2.887 3.254v-2.07h.399l.16.672h4.594l.16-.672h.398v2.07h-.398l-.16-.672h-4.594l-.16.672h-.399zm1.528 3.786c-.253 0-.479-.046-.68-.137-.198-.088-.366-.216-.504-.383-.138-.166-.243-.37-.316-.609-.071-.24-.106-.509-.106-.809 0-.289.024-.56.071-.812.044-.25.11-.46.199-.629h.695c-.042.088-.083.189-.125.301-.039.114-.074.234-.105.359-.032.125-.058.254-.079.387-.018.133-.027.264-.027.394 0 .417.078.724.235.922.156.201.38.301.671.301.141 0 .263-.02.368-.059.104-.036.199-.103.285-.199.088-.094.173-.22.254-.379.083-.159.173-.359.269-.601.091-.232.19-.434.297-.606.109-.169.232-.31.367-.422.136-.109.289-.191.461-.246.172-.052.367-.078.586-.078.229 0 .434.042.613.125.18.083.331.201.454.352.125.151.22.33.285.539.065.211.097.442.097.695 0 .31-.03.589-.09.836-.057.247-.131.467-.222.66l-.61-.262c.076-.169.141-.362.196-.578.057-.213.086-.435.086-.664 0-.317-.075-.564-.223-.738-.146-.175-.344-.262-.594-.262-.148 0-.277.02-.386.059-.107.039-.205.104-.293.195-.086.091-.168.211-.246.36-.076.151-.157.335-.243.554-.093.237-.19.444-.289.621-.099.18-.211.33-.336.45-.125.119-.269.209-.433.269-.164.063-.358.094-.582.094zm3.625 3.149c0-.279-.054-.532-.16-.758-.105-.227-.256-.421-.454-.582-.197-.159-.438-.283-.722-.371-.284-.086-.604-.129-.961-.129-.367 0-.694.037-.981.113-.283.078-.523.194-.718.348-.196.153-.344.345-.446.574-.101.229-.152.497-.152.805 0 .231.022.451.066.66.047.208.101.414.161.617h-.633c-.039-.102-.075-.203-.106-.305-.028-.101-.052-.208-.07-.32-.018-.109-.031-.228-.039-.356-.011-.125-.016-.264-.016-.418 0-.427.071-.796.211-1.109.141-.312.34-.572.598-.777.258-.203.568-.354.93-.453.361-.099.763-.149 1.203-.149.432 0 .828.056 1.187.168.36.115.668.281.926.5.258.221.458.495.601.82.144.326.215.7.215 1.122 0 .281-.028.549-.086.804-.057.255-.14.486-.25.692l-.609-.305c.083-.164.155-.343.215-.535.06-.193.09-.412.09-.656zm-2.289 6.687c-.44 0-.842-.053-1.203-.16-.362-.104-.672-.26-.93-.469-.258-.208-.457-.467-.598-.777-.14-.307-.211-.663-.211-1.066 0-.425.071-.793.211-1.106.141-.31.34-.567.598-.773.258-.203.568-.354.93-.453.364-.099.768-.149 1.21-.149.443 0 .844.05 1.204.149.362.099.67.251.925.457.256.205.452.465.59.777.141.313.211.681.211 1.106 0 .403-.07.757-.211 1.062-.138.307-.336.565-.594.773-.255.209-.563.365-.925.469-.36.107-.762.16-1.207.16zm0-4.183c-.357 0-.679.034-.965.101-.284.068-.526.171-.727.309-.198.141-.35.318-.457.531-.104.216-.156.473-.156.77 0 .297.052.552.156.765.107.216.259.394.457.532.201.14.443.243.727.308.286.065.608.098.965.098.359 0 .681-.033.964-.098.284-.065.524-.167.719-.305.198-.138.349-.313.453-.527.107-.213.161-.469.161-.765 0-.297-.054-.554-.161-.77-.104-.216-.255-.395-.453-.535-.195-.141-.435-.245-.719-.313-.283-.067-.605-.101-.964-.101zm2.855 9.223h-3.703c-.297 0-.573-.043-.828-.129-.255-.086-.477-.216-.664-.391-.188-.172-.335-.389-.442-.652-.106-.261-.16-.568-.16-.922 0-.333.05-.628.149-.883.101-.255.244-.47.429-.644.185-.172.407-.302.664-.391.261-.089.55-.133.868-.133h3.679v.731h-3.718c-.456 0-.809.112-1.059.336-.25.226-.375.567-.375 1.023 0 .232.035.431.105.598.071.166.17.303.297.41.128.107.28.186.457.238.177.052.371.08.582.082h3.719v.727zm-5.719 5.457v-.84l4.727-2.808v-.032c-.201.016-.4.029-.598.039-.169.011-.346.019-.531.024-.185.008-.352.012-.5.012h-3.098v-.672h5.711v.832l-4.703 2.797v.027c.198-.008.393-.017.586-.027.083-.003.168-.007.254-.012.089-.003.176-.007.262-.012.088-.002.173-.005.254-.008h3.347v.68h-5.711zm0 2.903v-.731h5.071v-1.633h.64v3.993h-.64v-1.629h-5.071zm1.528 5.102c-.253 0-.479-.046-.68-.137-.198-.089-.366-.216-.504-.383s-.243-.37-.316-.609c-.071-.24-.106-.509-.106-.809 0-.289.024-.56.071-.812.044-.25.11-.46.199-.629h.695c-.042.088-.083.188-.125.3-.039.115-.074.235-.105.36-.032.125-.058.254-.079.387-.018.132-.027.264-.027.394 0 .417.078.724.235.922.156.2.38.301.671.301.141 0 .263-.02.368-.059.104-.036.199-.103.285-.199.088-.094.173-.22.254-.379.083-.159.173-.359.269-.602.091-.231.19-.433.297-.605.109-.169.232-.31.367-.422.136-.109.289-.191.461-.246.172-.052.367-.078.586-.078.229 0 .434.042.613.125.18.083.331.2.454.351.125.152.22.331.285.54.065.21.097.442.097.695 0 .31-.03.588-.09.836-.057.247-.131.467-.222.66l-.61-.262c.076-.169.141-.362.196-.578.057-.213.086-.435.086-.664 0-.318-.075-.564-.223-.738-.146-.175-.344-.262-.594-.262-.148 0-.277.02-.386.059-.107.039-.205.104-.293.195-.086.091-.168.211-.246.359-.076.151-.157.336-.243.555-.093.237-.19.444-.289.621-.099.18-.211.33-.336.449-.125.12-.269.21-.433.27-.164.062-.358.094-.582.094zm4.183 5.578v.774l-5.711-1.91v-.731l5.711-1.902v.769l-3.621 1.153c-.237.075-.466.14-.687.195-.219.055-.425.104-.617.148.192.04.398.089.617.149.221.06.458.13.711.211l3.597 1.144zm-5.711 4.337l1.77-.625v-2.129l-1.77-.633v-.734l5.735 2.097v.664l-5.735 2.102v-.742zm2.414-.856l1.657-.578c.047-.016.104-.035.172-.059.067-.02.14-.043.218-.066.078-.023.159-.047.242-.07.086-.024.17-.046.25-.067-.08-.018-.164-.039-.25-.062-.085-.024-.169-.047-.25-.071-.078-.023-.151-.046-.218-.07-.065-.021-.12-.039-.164-.055l-1.657-.566v1.664zm-2.414 2.059h5.711v.727h-5.062v2.238h-.649v-2.965zm0 5.223v-2.07h.399l.16.672h4.594l.16-.672h.398v2.07h-.398l-.16-.672h-4.594l-.16.672h-.399zm2.911 4.985c-.482 0-.905-.063-1.27-.188-.362-.125-.665-.306-.91-.543-.242-.237-.425-.528-.547-.875-.122-.344-.184-.734-.184-1.172v-1.429h5.711v1.59c0 .398-.06.759-.179 1.082-.12.322-.299.597-.536.824-.234.226-.526.401-.875.523-.349.125-.752.188-1.21.188zm-.024-.77c.38 0 .708-.043.984-.129.279-.086.508-.211.688-.375.18-.164.312-.366.398-.605.089-.24.133-.512.133-.817v-.785h-4.465v.633c0 .688.19 1.206.571 1.555.38.349.944.523 1.691.523zm-2.887 5.141v-.73h5.071v-1.633h.64v3.992h-.64v-1.629h-5.071zm0 6.227v-.726h2.664v-2.602h-2.664v-.726h5.711v.726h-2.406v2.602h2.406v.726h-5.711zm2.36 1.962h-2.36v-.727h5.711v1.391c0 .692-.134 1.204-.402 1.535-.268.33-.675.496-1.219.496-.226 0-.424-.033-.594-.098-.169-.062-.315-.147-.437-.254-.12-.104-.22-.224-.301-.359-.081-.136-.147-.275-.199-.418l-2.559 1.555v-.856l2.36-1.371v-.894zm.617 0v.64c0 .235.022.434.066.598.047.164.115.298.203.402.092.107.204.184.336.231.136.049.293.074.473.074.188 0 .346-.027.477-.082.13-.052.237-.133.32-.242.083-.107.143-.244.18-.411.039-.164.058-.359.058-.585v-.625h-2.113zm2.742 7.758h-3.703c-.297 0-.573-.043-.828-.129-.255-.086-.477-.216-.664-.391-.188-.172-.335-.389-.442-.652-.106-.261-.16-.568-.16-.922 0-.333.05-.628.149-.883.101-.255.244-.47.429-.644.185-.172.407-.303.664-.391.261-.089.55-.133.868-.133h3.679v.731h-3.718c-.456 0-.809.112-1.059.336-.25.226-.375.567-.375 1.023 0 .232.035.431.105.598.071.166.17.303.297.41.128.107.28.186.457.238.177.052.371.08.582.082h3.719v.727zm-25.719-71.762v-7.57h1.295l3.163 2.905c.448.415.858.786 1.228 1.113.371.326.734.603 1.088.83.354.232.708.409 1.062.531.36.122.75.183 1.171.183.326 0 .614-.047.863-.142.249-.094.459-.229.631-.406.177-.172.31-.377.398-.615.089-.238.133-.503.133-.796 0-.526-.108-1.002-.324-1.428-.21-.421-.481-.822-.813-1.204l.988-.846c.199.221.384.459.556.713.177.255.329.529.456.822.128.293.227.603.299.93.078.326.116.669.116 1.029 0 .531-.074 1.01-.224 1.436-.149.432-.365.797-.647 1.096-.277.299-.617.528-1.021.689-.399.166-.85.249-1.353.249-.471 0-.919-.075-1.345-.224-.426-.144-.847-.346-1.262-.606-.409-.255-.821-.562-1.236-.922-.415-.354-.847-.738-1.295-1.153l-2.482-2.333h-.067v5.719h-1.378zm6.085 8.883c-.98 0-1.857-.072-2.632-.216-.774-.138-1.43-.365-1.967-.681-.537-.31-.946-.711-1.228-1.203-.283-.493-.424-1.09-.424-1.793 0-.653.141-1.223.424-1.71.282-.482.691-.883 1.228-1.204.537-.315 1.193-.553 1.967-.714.775-.155 1.652-.232 2.632-.232.979 0 1.856.069 2.631.207.775.144 1.428.368 1.959.673.537.31.946.708 1.229 1.195.282.493.423 1.088.423 1.785 0 .658-.141 1.231-.423 1.718-.277.487-.684.891-1.221 1.212-.531.321-1.184.562-1.959.722-.774.161-1.654.241-2.639.241zm0-6.217c-.83 0-1.555.041-2.175.124-.62.083-1.137.216-1.552.398-.41.183-.72.421-.93.714-.205.299-.307.662-.307 1.088 0 .426.102.788.307 1.087.205.299.512.542.921.731.41.193.925.332 1.544.415.626.088 1.356.132 2.192.132.83 0 1.555-.044 2.175-.132.619-.083 1.134-.222 1.544-.415.409-.189.716-.432.921-.731.205-.299.307-.661.307-1.087 0-.426-.102-.789-.307-1.088-.205-.293-.512-.531-.921-.714-.41-.182-.925-.315-1.544-.398-.62-.083-1.345-.124-2.175-.124zm-6.085 14.701v-7.57h1.295l3.163 2.905c.448.415.858.786 1.228 1.112.371.327.734.603 1.088.83.354.233.708.41 1.062.531.36.122.75.183 1.171.183.326 0 .614-.047.863-.141.249-.094.459-.23.631-.407.177-.171.31-.376.398-.614.089-.238.133-.504.133-.797 0-.526-.108-1.002-.324-1.428-.21-.42-.481-.821-.813-1.203l.988-.847c.199.221.384.459.556.714.177.255.329.528.456.822.128.293.227.603.299.929.078.327.116.67.116 1.03 0 .531-.074 1.01-.224 1.436-.149.431-.365.797-.647 1.095-.277.299-.617.529-1.021.689-.399.166-.85.249-1.353.249-.471 0-.919-.074-1.345-.224-.426-.144-.847-.346-1.262-.606-.409-.254-.821-.561-1.236-.921-.415-.354-.847-.739-1.295-1.154l-2.482-2.332h-.067v5.719h-1.378zm0 6.218v-1.461h8.343c.271.005.539.011.805.017.271.011.528.019.772.024.249.011.467.02.656.025-.1-.094-.186-.177-.258-.249-.072-.072-.141-.146-.207-.224-.067-.072-.139-.149-.216-.232-.072-.083-.158-.183-.257-.299l-1.005-1.229 1.021-.796 2.482 3.179v1.245h-12.136zm3.86 3.462h1.395v4.117h-1.395v-4.117zm2.225 12.684c-.98 0-1.857-.072-2.632-.216-.774-.138-1.43-.365-1.967-.68-.537-.31-.946-.711-1.228-1.204-.283-.492-.424-1.09-.424-1.793 0-.653.141-1.223.424-1.71.282-.481.691-.882 1.228-1.203.537-.316 1.193-.554 1.967-.714.775-.155 1.652-.233 2.632-.233.979 0 1.856.069 2.631.208.775.144 1.428.368 1.959.672.537.31.946.708 1.229 1.195.282.493.423 1.088.423 1.785 0 .659-.141 1.231-.423 1.718-.277.487-.684.891-1.221 1.212-.531.321-1.184.562-1.959.722-.774.161-1.654.241-2.639.241zm0-6.217c-.83 0-1.555.041-2.175.124-.62.083-1.137.216-1.552.399-.41.182-.72.42-.93.714-.205.299-.307.661-.307 1.087 0 .426.102.789.307 1.088.205.298.512.542.921.73.41.194.925.332 1.544.415.626.089 1.356.133 2.192.133.83 0 1.555-.044 2.175-.133.619-.083 1.134-.221 1.544-.415.409-.188.716-.432.921-.73.205-.299.307-.662.307-1.088 0-.426-.102-.788-.307-1.087-.205-.294-.512-.532-.921-.714-.41-.183-.925-.316-1.544-.399-.62-.083-1.345-.124-2.175-.124zm3.212 14.311c-.404 0-.772-.064-1.104-.191-.332-.127-.62-.307-.863-.539-.244-.227-.446-.501-.606-.822-.155-.321-.266-.678-.332-1.071h-.05c-.122.98-.434 1.724-.938 2.233-.498.509-1.148.764-1.951.764-.531 0-1.018-.092-1.46-.274-.443-.177-.825-.449-1.146-.814-.321-.365-.57-.827-.747-1.386-.177-.559-.266-1.22-.266-1.984 0-.603.047-1.173.141-1.71.095-.531.266-1.032.515-1.502h1.411c-.254.481-.451 1.001-.589 1.56-.138.565-.208 1.104-.208 1.619 0 .509.056.949.166 1.32.111.371.269.675.474.913.204.243.456.42.755.531.299.116.634.174 1.004.174.377 0 .698-.074.963-.224.271-.144.493-.351.664-.622.177-.271.307-.603.39-.996.083-.388.125-.828.125-1.32v-1.104h1.253v1.104c0 .448.056.846.166 1.195.111.349.269.639.473.872.205.238.449.418.731.539.282.122.592.183.93.183.287 0 .545-.05.772-.15.226-.099.417-.24.572-.423.161-.183.283-.401.366-.656.083-.254.124-.536.124-.846 0-.592-.094-1.115-.282-1.569-.183-.448-.423-.877-.722-1.287l1.037-.763c.172.21.332.442.482.697.149.26.279.542.39.846.116.305.207.629.274.972.066.348.099.716.099 1.104 0 .597-.074 1.12-.224 1.569-.149.453-.359.832-.631 1.137-.265.304-.583.534-.954.689-.365.155-.767.232-1.204.232zm-5.437 1.387h1.395v4.117h-1.395v-4.117zm5.437 12.095c-.404 0-.772-.064-1.104-.191-.332-.127-.62-.307-.863-.54-.244-.226-.446-.5-.606-.821-.155-.321-.266-.678-.332-1.071h-.05c-.122.979-.434 1.724-.938 2.233-.498.509-1.148.763-1.951.763-.531 0-1.018-.091-1.46-.273-.443-.178-.825-.449-1.146-.814-.321-.365-.57-.827-.747-1.386-.177-.559-.266-1.22-.266-1.984 0-.603.047-1.173.141-1.71.095-.531.266-1.032.515-1.502h1.411c-.254.481-.451 1.001-.589 1.56-.138.565-.208 1.104-.208 1.619 0 .509.056.949.166 1.32.111.37.269.675.474.913.204.243.456.42.755.531.299.116.634.174 1.004.174.377 0 .698-.075.963-.224.271-.144.493-.351.664-.622.177-.272.307-.604.39-.997.083-.387.125-.827.125-1.319v-1.104h1.253v1.104c0 .448.056.846.166 1.195.111.349.269.639.473.872.205.237.449.417.731.539.282.122.592.183.93.183.287 0 .545-.05.772-.15.226-.099.417-.24.572-.423.161-.183.283-.401.366-.656.083-.254.124-.537.124-.847 0-.592-.094-1.115-.282-1.568-.183-.449-.423-.877-.722-1.287l1.037-.764c.172.211.332.443.482.698.149.26.279.542.39.846.116.305.207.628.274.971.066.349.099.717.099 1.104 0 .598-.074 1.121-.224 1.569-.149.454-.359.833-.631 1.138-.265.304-.583.534-.954.688-.365.155-.767.233-1.204.233zm-9.297 6.608v-1.461h8.343c.271.006.539.011.805.017.271.011.528.019.772.025.249.011.467.019.656.024-.1-.094-.186-.177-.258-.249-.072-.071-.141-.146-.207-.224-.067-.072-.139-.149-.216-.232-.072-.083-.158-.183-.257-.299l-1.005-1.228 1.021-.797 2.482 3.179v1.245h-12.136z" fill="#000"/><g clip-path="url(#clip0)" fill="#10A5C5"><path d="M68.0754 409.937v11.14c.0033.224.0937.438.2521.597.1584.158.3722.248.5962.252h25.7628v-3.267H71.3417v-5.266h23.3448v-3.292H68.911c-.2911-.008-.5784-.068-.8482-.177"/><path d="M94.6865 423.571H68.9237c-.6715 0-1.3156-.266-1.7904-.741-.4748-.475-.7416-1.119-.7416-1.791v-58.045c0-.672.2668-1.316.7416-1.791.4748-.474 1.1189-.741 1.7904-.741h21.6104c.6715 0 1.3155.267 1.7904.741.4748.475.7416 1.119.7416 1.791v31.244c0 .672-.2668 1.316-.7416 1.791-.4749.475-1.1189.741-1.7904.741H68.911c-.286-.005-.5689-.061-.8355-.164v11.027c.0033.222.0941.435.2528.591.1587.157.3726.244.5954.244h25.7628v-3.253H71.3417v-5.229h19.2051c1.5255-.003 2.9874-.612 4.0649-1.692 1.0775-1.079 1.6826-2.543 1.6826-4.068v-31.232c-.0033-1.523-.6099-2.983-1.6871-4.061-1.0771-1.077-2.5371-1.683-4.0604-1.687H68.9237c-1.5234.004-2.9833.61-4.0605 1.687-1.0771 1.078-1.6838 2.538-1.6871 4.061v58.096c-.0033.756.1424 1.506.4288 2.206s.7079 1.337 1.2404 1.875c.5325.537 1.1657.964 1.8633 1.256.6976.293 1.446.445 2.2024.449h25.7755v-3.305z"/><path d="M71.3544 391.808v-26.383h16.7617v26.383H71.3544zm20.0279-28.814c-.0033-.223-.0941-.435-.2528-.592-.1588-.156-.3726-.244-.5954-.244H68.911c-.2228 0-.4366.088-.5953.244-.1587.157-.2496.369-.2529.592v31.27c.0124.198.0929.386.2279.531.0774.08.1699.143.272.187.1022.043.212.066.323.067h21.6484c.2218-.004.4338-.092.5919-.248.158-.156.2498-.366.2563-.588v-31.219z"/></g><path fill-rule="evenodd" clip-rule="evenodd" d="M58.822 357.246v1.306l-13.9635 5.786v.041l13.9635 5.723v1.307H43.8295v-.913h13.8587v-.041l-13.8587-5.641v-.912l13.8587-5.702v-.041H43.8295v-.913H58.822zM49.814 373.027c2.1418.166 4.3677 1.555 4.3677 3.919 0 2.447-2.0999 3.856-4.3677 3.898v-7.817zm-.6927 8.605c3.0864.145 5.7531-1.348 5.7531-4.686 0-3.214-2.8767-4.749-5.8371-4.707-2.9816-.042-5.4597 1.597-5.4597 4.707 0 2.529 1.3858 4.188 3.9057 4.604v-.789c-1.9947-.373-3.2127-1.804-3.2127-3.815 0-2.633 2.3097-3.961 4.8507-3.919v8.605zM51.2839 390.88c1.911-.145 2.8978-1.679 2.8978-3.608 0-2.675-2.3937-4.105-4.8507-4.105-2.9186 0-5.0604 1.347-5.0604 4.105 0 1.99 1.3858 3.442 3.3594 3.711v.789c-2.5822-.353-4.0524-2.198-4.0524-4.5 0-3.463 2.7508-4.894 5.7534-4.894 3.003 0 5.5434 1.742 5.5434 4.894 0 2.302-1.1335 4.168-3.5905 4.396v-.788zM49.814 393.36c2.1418.165 4.3677 1.555 4.3677 3.919 0 2.447-2.0999 3.857-4.3677 3.898v-7.817zm-.6927 8.605c3.0864.146 5.7531-1.347 5.7531-4.686 0-3.214-2.8767-4.749-5.8371-4.707-2.9816-.042-5.4597 1.596-5.4597 4.707 0 2.53 1.3858 4.188 3.9057 4.603v-.788c-1.9947-.373-3.2127-1.804-3.2127-3.815 0-2.634 2.3097-3.96 4.8507-3.919v8.605zM54.6225 403.085v.787h-2.3099v.041c1.6172.54 2.5618 2.157 2.5618 3.816 0 3.753-3.0442 3.794-4.3673 3.794h-6.6776v-.787h6.8243c1.1131 0 3.5279-.124 3.5279-3.027 0-2.385-1.8691-3.837-4.5147-3.837h-5.8375v-.787h10.793zM47.9449 420.037c-.5664 0-3.6743-.395-3.6743-3.982 0-1.866 1.0502-2.799 2.3515-2.799 1.6173 0 2.2892 1.057 2.4992 2.923.2097 1.535.1256 3.235.8398 3.858h-2.0162zm4.1161.787c2.2256 0 2.8134-1.865 2.8134-3.732 0-2.508-1.1968-3.961-3.5694-4.063v.787c1.8688.104 2.8767 1.369 2.8767 3.276 0 2.426-1.638 2.965-2.1207 2.965-1.7639 0-1.9951-.145-2.247-3.67-.147-1.763-.6719-3.919-3.1919-3.919-2.267 0-3.0445 1.554-3.0445 3.567 0 2.031 1.1131 3.463 2.394 3.96v.042h-.5671c-.882 0-1.575.186-1.575 1.43 0 .207.0422.415.0844.643h.672c-.0426-.248-.0634-.436-.0634-.58 0-.706.672-.706 1.3021-.706h6.2364zM53.9298 426.838v-2.323h-7.5385c-1.7428 0-1.9106.809-1.8688 2.302h-.693c-.1052-1.617.1259-3.172 2.5618-3.09h7.5385v-1.969h.6927v1.969h3.3598v.788h-3.3598v2.323h-.6927z" fill="#231F1F"/><rect x="112.389" y="352.393" width="79.2977" height="73.9446" rx="9.5" transform="rotate(90 112.389 352.393)" stroke="#000"/><rect x="37.9799" y="352.393" width="79.2977" height="25.7659" rx="9.5" transform="rotate(90 37.9799 352.393)" stroke="#000"/><path d="M108.351 369.42v.967l-7.138-2.388v-.913l7.138-2.378v.962l-4.526 1.44c-.296.095-.583.176-.859.244-.274.069-.531.131-.772.186.241.049.498.111.772.186.276.074.572.162.888.263l4.497 1.431zm-7.138 5.649v-3.706h7.138v3.706h-.801v-2.798h-2.207v2.613h-.791v-2.613h-2.539v2.798h-.8zm2.949 2.486h-2.949v-.909h7.138v1.739c0 .866-.167 1.505-.503 1.919-.335.413-.843.62-1.523.62-.283 0-.531-.041-.742-.122-.212-.078-.394-.184-.547-.318-.15-.13-.275-.28-.376-.449-.101-.169-.184-.343-.249-.522l-3.198 1.943v-1.069l2.949-1.714v-1.118zm.771 0v.8c0 .293.028.542.083.747.059.206.144.373.254.503.114.134.254.23.42.288.169.062.366.093.591.093.234 0 .433-.034.596-.102.162-.065.296-.166.4-.303.104-.133.179-.304.225-.513.048-.205.073-.449.073-.732v-.781h-2.642zm-3.72 7.006v-2.587h.498l.2.839h5.742l.2-.839h.498v2.587h-.498l-.2-.839h-5.742l-.2.839h-.498zm0 2.281v-.908h7.138v3.706h-.801v-2.798h-2.519v2.612h-.801v-2.612h-3.017zm0 6.02v-2.588h.498l.2.84h5.742l.2-.84h.498v2.588h-.498l-.2-.84h-5.742l-.2.84h-.498zm0 5.078v-3.706h7.138v3.706h-.801v-2.797h-2.207v2.612h-.791v-2.612h-2.539v2.797h-.8zm3.637 6.836c-.602 0-1.131-.078-1.587-.234-.452-.156-.831-.383-1.137-.679-.303-.296-.531-.661-.684-1.094-.153-.429-.229-.918-.229-1.464v-1.787h7.138v1.987c0 .498-.075.949-.224 1.352-.15.404-.373.747-.669 1.031-.293.283-.658.501-1.094.654-.436.156-.941.234-1.514.234zm-.029-.962c.475 0 .885-.053 1.23-.161.349-.107.635-.263.86-.469.224-.205.39-.457.498-.756.111-.3.166-.64.166-1.021v-.981h-5.581v.791c0 .859.237 1.507.713 1.943.475.436 1.18.654 2.114.654zm3.53 5.147v1.948c0 .417-.032.783-.097 1.099-.062.319-.165.584-.308.796-.14.214-.326.376-.557.483-.228.107-.509.161-.844.161-.202 0-.391-.032-.567-.097-.176-.062-.33-.153-.464-.274-.133-.12-.245-.27-.337-.449-.087-.176-.146-.376-.175-.601h-.049c-.039.225-.096.435-.171.63-.072.199-.173.371-.303.518-.127.146-.288.262-.483.346-.196.085-.433.127-.713.127-.326 0-.617-.053-.874-.161-.254-.104-.471-.257-.65-.459-.175-.198-.31-.441-.405-.727-.094-.287-.141-.611-.141-.972v-2.368h7.138zm-3.027.908v1.191c0 .274.024.503.073.689.049.185.121.335.215.449.098.114.218.195.361.244.147.052.316.078.508.078.391 0 .671-.125.84-.376.169-.25.254-.646.254-1.186v-1.089h-2.251zm-.762 0h-2.578v1.299c0 .286.033.526.098.718.065.195.156.351.273.468.117.121.257.207.42.259.166.052.348.078.547.078.182 0 .35-.027.503-.083.153-.052.283-.14.391-.263.11-.121.195-.282.253-.484.062-.202.093-.452.093-.752v-1.24zm.181 6.865l3.608 1.66v.977l-4.36-2.178h-2.778v-.913h2.729l4.409-2.178v.992l-3.608 1.64zM23.1455 379.046c.4303 0 .8488.059 1.2448.233.2942.124.5607.306.7838.534.2231.229.3983.499.5155.796.0852.207.1916.404.2891.604l1.7276 3.548 1.607 3.299.8484 1.743c.0553.107.0838.227.0832.348-.0006.121-.0303.24-.0866.347-.677 1.388-1.3534 2.777-2.029 4.166-.3545.729-.7094 1.457-1.0645 2.185-.1377.281-.3676.433-.6793.433-.3117 0-.5421-.152-.6793-.433-.5881-1.204-1.1752-2.41-1.7614-3.616l-1.7565-3.606c-.3186-.653-.6375-1.308-.9567-1.963-.0575-.112-.0872-.236-.0863-.362.0009-.126.0321-.249.0912-.36.5522-1.132 1.1034-2.263 1.6536-3.395.4179-.856.8348-1.711 1.2507-2.566.0107-.015.0149-.035.0119-.053-.003-.019-.013-.036-.028-.048-.1714-.176-.3992-.286-.6435-.31-.4323-.055-.8508.015-1.2581.16-.3887.137-.7491.344-1.0635.611-.0237.02-.0431.045-.0569.073-.7103 1.46-1.4214 2.921-2.1334 4.382-.2349.482-.4703.964-.7062 1.445-.0115.02-.0175.043-.0175.065 0 .023.006.046.0175.065.5228 1.071 1.0455 2.143 1.5683 3.214l2.2721 4.668c.1544.316.3107.632.4627.95.0448.087.0719.183.0798.281.0079.098-.0036.196-.0338.29-.0302.093-.0785.18-.1422.255-.0637.075-.1415.137-.229.181-.0875.045-.183.072-.281.08-.0979.008-.1965-.003-.2901-.034-.0935-.03-.1802-.078-.2551-.142-.0748-.064-.1364-.141-.1812-.229-.0779-.151-.15-.306-.2245-.459-.0113-.022-.0186-.044-.0529-.045-.3647-.012-.7112-.109-1.0488-.237-.4445-.163-.8586-.399-1.2253-.698-.2117-.167-.3866-.375-.5136-.613-.2112-.421-.1323-.85.2166-1.169.2481-.223.5603-.362.892-.398.0426-.006.0858-.008.1289-.011.0554-.003.0554-.002.0294-.056l-.2514-.517c-.2098-.432-.421-.862-.6288-1.294-.0077-.02-.0214-.036-.039-.047-.0176-.011-.0383-.016-.059-.015-.2994-.019-.5942-.083-.8753-.187-.4817-.162-.9315-.407-1.3292-.724-.1951-.152-.3624-.337-.4945-.546-.1105-.17-.1695-.369-.1701-.572.0042-.23.0945-.45.2529-.617.2382-.263.5426-.405.8866-.468.0733-.013.1473-.021.2215-.024.0392-.002.0422-.01.0255-.044-.0764-.154-.147-.311-.2269-.464-.0619-.115-.0943-.243-.0943-.374s.0324-.259.0943-.374c.5032-1.027 1.0039-2.055 1.5022-3.084.5263-1.08 1.0525-2.161 1.5786-3.241.0587-.115.1398-.218.2386-.301.7171-.638 1.5443-1.05 2.4946-1.2.1927-.031.3892-.041.5838-.06zM30.8449 392.159c.294.015.5273.152.6655.43.1824.368.3603.739.5391 1.108.1549.319.3117.638.4642.956.0556.113.0816.239.0756.364-.006.126-.0437.248-.1097.356-.0661.107-.1582.196-.2679.258-.1096.062-.2332.095-.3592.096-.1415.008-.2819-.028-.4031-.101-.1211-.074-.2173-.182-.2762-.311-.2827-.567-.5567-1.139-.8331-1.709-.0583-.119-.1172-.238-.1745-.358-.0545-.108-.0822-.227-.0808-.347.0014-.121.0319-.239.0889-.346.0569-.106.1387-.197.2383-.264.0997-.068.2142-.111.3339-.125.0284-.004.0583-.004.099-.007zM22.9573 399.351c.0048-.164.0641-.322.1685-.449.1045-.127.2481-.215.4084-.252.1674-.039.3432-.019.498.056s.2791.2.3523.356l.4004.823c.2004.412.4024.823.6009 1.236.0586.117.0852.248.0771.379-.0081.131-.0506.258-.1232.367-.0726.11-.1728.198-.2904.256-.1177.058-.2486.085-.3796.076-.1315-.003-.2595-.043-.3694-.115-.11-.073-.1976-.174-.253-.294-.2808-.566-.5548-1.136-.8332-1.704l-.1798-.369c-.0551-.114-.0815-.24-.077-.366zM29.4962 401.422c-.0072.167-.0697.326-.1776.453-.108.127-.2553.214-.4185.248-.1632.034-.333.012-.4825-.061-.1495-.074-.2701-.196-.3427-.346-.3382-.688-.6745-1.379-1.0091-2.071-.0555-.114-.0808-.241-.0736-.368.0071-.126.0465-.249.1145-.357.0679-.107.1621-.195.2737-.256.1115-.06.2367-.091.3637-.09.1395-.004.2771.033.3955.107s.2125.181.2705.308c.3431.691.6764 1.386 1.0135 2.079.052.111.0768.232.0726.354zM28.6189 396.093c-.0049-.173.0498-.342.1551-.479.1052-.138.2545-.234.4227-.274.1622-.038.3325-.021.4836.049.1511.07.2742.189.3495.338.1255.245.2451.495.3637.743l.6371 1.315c.1471.304.1049.634-.1142.867-.0827.088-.1856.155-.2998.195-.1142.039-.2364.051-.356.033-.1196-.018-.2331-.064-.3308-.135-.0978-.072-.1768-.166-.2303-.274-.1862-.375-.3671-.753-.5504-1.127-.147-.305-.294-.609-.4455-.913-.0541-.105-.0831-.22-.0847-.338zM26.3073 368.995c-1.6207-.234-1.6939-1.668-1.639-2.626.0037-.07.0147-.139.022-.198.0109-.091.1134-.095.1463-.018.0842.194.6073 1.156 1.7085 1.262.2268.022.5451.022.6037.022h4.2548v1.588h-4.3134c-.5048-.004-.6914-.019-.7829-.03zM21.771 367.236c1.6646.066 2.8097 1.43 2.8097 3.537v5.667c0 .077-.0512.099-.1317.055-.3951-.205-1.5256-.87-1.5256-1.694v-3.3c0-1.821-.9951-3.043-2.0158-3.391-.1866-.062-.6293-.241-.6293-.501 0-.355.4793-.41 1.4927-.373zM21.771 363.855c1.6646-.066 2.8097-1.43 2.8097-3.538v-5.67c0-.077-.0512-.099-.1317-.055-.3951.205-1.5256.871-1.5256 1.694v3.3c0 1.822-.9951 3.044-2.0158 3.391-.1866.062-.6293.242-.6293.501 0 .359.4793.414 1.4927.377z" fill="#000"/><path d="M18.3246 365.545c0-1.185.6256-2.378 1.3098-2.875.8487-.618 2.3853-.732 2.3853-3.498v-2.444c0-.076-.0512-.098-.1317-.054-.3915.204-1.6463.965-1.6463 1.789v1.137c0 .615-.4207.758-.9146 1.054-1.6793.867-2.8207 2.583-2.8207 4.891 0 2.309 1.1414 4.025 2.8207 4.895.4939.297.9146.439.9146 1.054v1.138c0 .823 1.2548 1.584 1.6463 1.789.0842.044.1317.025.1317-.055v-2.444c0-2.766-1.5402-2.879-2.3853-3.497-.6805-.502-1.3098-1.694-1.3098-2.88zM31.1952 366.112h-1.039s.3987-.823.3987-1.445c0-.618-.2195-1.09-.6768-1.09-.567 0-.8341 1.054-.9695 1.441-.1353.388-.6402 1.537-1.6646 1.537-1.0902 0-2.089-.6-2.089-2.674 0-1.094.3403-1.72.3403-1.72h1.028c-.1354.362-.3402 1.175-.3402 1.592 0 .709.1536 1.141.6146 1.141.5817 0 .8927-1.116 1.0683-1.544.1756-.431.5963-1.419 1.7853-1.419 1.328 0 1.8695 1.189 1.8695 2.608 0 .966-.3256 1.573-.3256 1.573z" fill="#000"/><path fill-rule="evenodd" clip-rule="evenodd" d="M19.3724 416.411c0 1.837.715 3.563 2.0141 4.863 1.2989 1.299 3.0261 2.014 4.8628 2.014 1.8373 0 3.5642-.715 4.8634-2.014 1.2988-1.299 2.0141-3.026 2.0141-4.863 0-3.792-3.0852-6.878-6.8775-6.878-1.8367 0-3.5639.716-4.8628 2.014-1.2991 1.299-2.0141 3.027-2.0141 4.864zm6.8769-5.797c1.5484 0 3.0043.603 4.0989 1.698 1.0949 1.095 1.6973 2.55 1.6973 4.098s-.6024 3.004-1.6973 4.099c-1.0946 1.095-2.5505 1.697-4.0989 1.697-3.1959 0-5.7962-2.6-5.7962-5.796 0-1.548.6031-3.003 1.6976-4.098 1.0949-1.095 2.5505-1.698 4.0986-1.698z" fill="#4C9CC9"/><path fill-rule="evenodd" clip-rule="evenodd" d="M25.3005 413.251c-.3344.009-1.0279.207-1.0279 1.11 0 .627.3489 1.076.7613 1.076.4182 0 .7853-.252.9247-.972l.1487-.759c.2211-.968.7361-1.56 1.6643-1.56.9415 0 1.8558.676 1.8558 2.233 0 1.756-1.3278 2.126-1.8512 2.126v-1.201s.888.042.888-.996c0-.573-.2513-.957-.795-.957-.4793 0-.6526.445-.7111.701l-.2405 1.123c-.2136.891-.6872 1.503-1.7252 1.503-1.4977 0-1.9222-1.33-1.9222-2.309 0-1.726 1.1568-2.314 2.03-2.314v1.196h.0003zM24.457 418.675v2.305h-1.0595v-3.543h6.1171v1.238H24.457z" fill="#4C9CC9"/><path fill-rule="evenodd" clip-rule="evenodd" d="M27.0599 426.26c-.2683.021-.5384.033-.8108.033-2.6421 0-5.1268-1.03-6.9957-2.898-1.8686-1.869-2.8974-4.353-2.8974-6.996 0-2.643 1.0288-5.127 2.8974-6.996 1.8686-1.868 4.3533-2.897 6.9957-2.897.2721 0 .5425.011.8108.033v-1.085c-.2683-.02-.5387-.029-.8108-.029-2.9313 0-5.6873 1.141-7.7599 3.214-2.0724 2.073-3.2142 4.829-3.2142 7.76s1.1415 5.687 3.2142 7.76c2.0726 2.072 4.8286 3.214 7.7599 3.214.2721 0 .5425-.01.8108-.029v-1.084z" fill="#4C9CC9"/><path fill-rule="evenodd" clip-rule="evenodd" d="M27.0599 424.203c-.2675.027-.5376.042-.8108.042-2.0953 0-4.0653-.816-5.5468-2.298-1.482-1.482-2.2978-3.452-2.2978-5.548 0-2.095.8155-4.065 2.2978-5.547 1.4812-1.482 3.4512-2.297 5.5468-2.297.2729 0 .5433.014.8108.041v-1.086c-.2678-.024-.5381-.037-.8108-.037-2.3842 0-4.6258.929-6.3115 2.615-1.6858 1.686-2.6143 3.927-2.6143 6.311 0 2.385.9285 4.626 2.6143 6.312 1.6857 1.686 3.9276 2.614 6.3115 2.614.2727 0 .543-.012.8108-.037v-1.085z" fill="#4C9CC9"/><defs><clipPath id="clip0"><path fill="#fff" transform="rotate(90 -130.47585 226.77015)" d="M0 0h69.5914v33.1309H0z"/></clipPath></defs></svg>