<svg width="143" height="24" viewBox="0 0 143 24" fill="none" xmlns="http://www.w3.org/2000/svg"><path fill-rule="evenodd" clip-rule="evenodd" d="M38.8565.729736h1.9548L49.4686 21.6261h.0624L58.0947.729736h1.9559V23.1661h-1.3653V2.42657h-.0618L50.1819 23.1661h-1.3652L40.2836 2.42657h-.0619V23.1661h-1.3652V.729736zM62.4723 14.2101c.2485-3.2051 2.3275-6.53617 5.8644-6.53617 3.6621 0 5.7714 3.14257 5.8343 6.53617H62.4723zm12.8773 1.0367c.2173-4.6188-2.0172-8.6095-7.0129-8.6095-4.809 0-7.1065 4.305-7.0436 8.7353-.0629 4.4619 2.3895 8.1704 7.0436 8.1704 3.7854 0 6.2679-2.0738 6.8897-5.8449h-1.1802c-.5584 2.9851-2.6993 4.8077-5.7095 4.8077-3.9403 0-5.9268-3.4563-5.8644-7.259h12.8773zM89.1892 12.0105c-.2173-2.8598-2.5132-4.33657-5.3991-4.33657-4.0027 0-6.1436 3.58217-6.1436 7.25907 0 4.3676 2.0161 7.5728 6.1436 7.5728 2.9785 0 5.1511-2.0738 5.554-5.0273h1.1797c-.5277 3.8644-3.2894 6.0645-6.7337 6.0645-5.1818 0-7.3238-4.1165-7.3238-8.61 0-4.494 2.6073-8.2957 7.3238-8.2957 3.4443 0 6.2367 1.69631 6.5782 5.3732h-1.1791zM92.9007 14.2101c.2475-3.2051 2.3266-6.53617 5.865-6.53617 3.6613 0 5.7713 3.14257 5.8323 6.53617H92.9007zm12.8773 1.0367c.218-4.6188-2.016-8.6095-7.0123-8.6095-4.8101 0-7.1065 4.305-7.0446 8.7353-.0619 4.4619 2.3895 8.1704 7.0446 8.1704 3.7863 0 6.2683-2.0738 6.8873-5.8449h-1.179c-.558 2.9851-2.699 4.8077-5.7083 4.8077-3.9413 0-5.9268-3.4563-5.865-7.259h12.8773zM107.454 7.01426h1.178v3.45684h.062c.807-2.42021 3.228-3.8338 5.711-3.8338 5.616 0 5.677 4.5556 5.677 6.5357v9.993h-1.178V12.9534c0-1.6657-.186-5.27947-4.53-5.27947-3.569 0-5.742 2.79717-5.742 6.75627v8.7358h-1.178V7.01426zM132.822 17.0073c0 .8476-.59 5.4985-5.958 5.4985-2.793 0-4.189-1.5715-4.189-3.5189 0-2.4202 1.582-3.4258 4.375-3.7401 2.297-.3138 4.841-.188 5.772-1.2567v3.0172zm1.179-6.1598c0-3.33046-2.792-4.2102-5.586-4.2102-3.753 0-5.926 1.79107-6.08 5.3416h1.178c.155-2.79661 2.048-4.30497 4.902-4.30497 3.631 0 4.437 2.45127 4.437 3.17357 0 2.6398-.216 2.9857-5.492 3.3626-2.637.2201-5.864 1.0056-5.864 4.7768 0 3.3926 2.326 4.5561 5.337 4.5561 3.041 0 5.183-1.6658 5.927-3.5827h.062v.8487c0 1.3199.279 2.357 2.141 2.357.31 0 .621-.0631.962-.1263v-1.0056c-.371.0637-.652.0948-.868.0948-1.056 0-1.056-1.0056-1.056-1.9485v-9.3329zM143 8.05088h-3.476V19.3322c0 2.6082 1.211 2.8593 3.445 2.7967v1.0371c-2.42.1575-4.747-.1884-4.624-3.8338V8.05088h-2.946V7.01424h2.946V1.98639h1.179v5.02785H143v1.03664zM23.205 12.5849h4.9084c.2022 0 .3722-.1732.3722-.3785V.71759H27.045c-.0005 0 0 8.63054 0 10.40841h-2.3214V.71759h-1.4463l.0031 11.49031c0 .1338-.0322.2585-.0754.377z" fill="#fff"/><path fill-rule="evenodd" clip-rule="evenodd" d="M29.2062.717588V12.2064c0 .6107-.4903 1.1082-1.0928 1.1082l-11.8277.0037H2.53241c-.60152 0-1.09126-.4965-1.09126-1.1067V2.56921c0-.61019.48974-1.10613 1.09126-1.10613l13.75909-.00211c.6015 0 1.0912.49752 1.0912 1.10824v9.64399c0 .1322-.0322.2548-.0743.3717h4.8823c.2033 0 .3691-.169.3691-.377L22.5567.717588h-1.4354V11.126h-2.2995V2.56447C18.8218 1.14983 17.6843 0 16.2857 0H2.53241C1.13597 0 0 1.14983 0 2.56447v9.64193c0 1.4146 1.13597 2.566 2.53241 2.566l25.58249.0021c1.3965 0 2.5324-1.1509 2.5324-2.5644V.717588h-1.4411z" fill="#fff"/><path fill-rule="evenodd" clip-rule="evenodd" d="M2.53241 2.19225c-.20432 0-.37069.16953-.37069.37696v9.64239c0 .208.16637.377.37069.377H15.5194v-.0037h.783c.0894-.0047.1689-.0426.2313-.0995.0047-.0047.0125-.0032.0167-.0079.0681-.0684.1097-.1621.1097-.2659h.002V2.56921c0-.20533-.17-.37854-.3706-.37854l-13.75909.00158zM15.2194 11.1245H3.60235V3.64796H15.2194v7.47654z" fill="#fff"/></svg>