<svg width="75" height="78" viewBox="0 0 75 78" fill="none" xmlns="http://www.w3.org/2000/svg"><path fill="#fff" d="M0 0h75v78H0z"/><path d="M32.5801 65.8999c0 .3473-.0627.6589-.188.9346-.1218.2721-.2972.5031-.5264.6928-.2291.1898-.5084.3348-.8379.4351-.3294.0967-.7.145-1.1118.145-.3974 0-.7698-.0322-1.1172-.0967-.3437-.0608-.632-.1521-.8647-.2739v-.956c.1217.0573.2596.1145.4136.1718.1575.0537.3222.1021.4941.1451.1719.0429.3491.0787.5317.1074.1827.025.3635.0376.5425.0376.5729 0 .9955-.1074 1.2676-.3223.2757-.2148.4136-.5228.4136-.9238 0-.1934-.0269-.3617-.0806-.5049-.0501-.1432-.1414-.2739-.2739-.3921-.1289-.1217-.3026-.2381-.521-.3491-.2184-.1146-.4942-.2381-.8272-.3706-.3187-.1253-.5962-.2614-.8325-.4082-.2327-.1504-.4261-.3187-.5801-.5049-.1504-.1862-.2631-.3975-.3383-.6338-.0717-.2363-.1075-.5049-.1075-.8057 0-.3151.0573-.5961.1719-.8432.1146-.2471.2757-.4548.4834-.6231.2077-.1718.4548-.3025.7412-.3921.2901-.0895.6087-.1342.9561-.1342.4261 0 .8092.0411 1.1494.1235.3402.0788.6427.1808.9077.3062l-.3599.8378c-.2327-.1038-.4977-.1933-.7949-.2685-.2936-.0788-.598-.1182-.9131-.1182-.4368 0-.7752.1021-1.0151.3062-.2399.2005-.3599.4726-.3599.8164 0 .2041.0269.3813.0806.5317.0537.1468.1432.2811.2686.4029.1253.1181.29.2309.4941.3383.2077.1039.4619.2149.7627.333.3258.1289.6105.2614.854.3975.2471.1361.453.29.6177.4619s.2882.3706.3706.5962c.0859.2256.1289.4924.1289.8003zm7.9922-1.8369c0 .6051-.0734 1.1566-.2202 1.6543-.1433.4977-.3581.9238-.6446 1.2783-.2864.3545-.6427.6284-1.0688.8218-.4226.1933-.9113.29-1.4663.29-.5837 0-1.0904-.0967-1.5201-.29-.4261-.1934-.7806-.4673-1.0634-.8218-.2793-.3545-.487-.7806-.6231-1.2783-.136-.5013-.2041-1.0563-.2041-1.6651 0-.6087.0681-1.1601.2041-1.6543.1361-.4977.3456-.922.6284-1.2729.2829-.3509.6392-.6213 1.0689-.811.4297-.1934.9363-.2901 1.52-.2901.555 0 1.042.0967 1.4609.2901.4226.1897.7771.4619 1.0635.8164.2865.3509.5013.7752.6446 1.2729.1468.4942.2202 1.0474.2202 1.6597zm-5.7525 0c0 .4905.0466.9328.1397 1.3266.0931.3903.2345.7234.4243.9991.1933.2721.4368.4816.7305.6284.2972.1432.6499.2148 1.0581.2148s.7591-.0716 1.0527-.2148c.2972-.1468.5407-.3563.7305-.6284.1933-.2757.3348-.6088.4243-.9991.0895-.3938.1343-.8361.1343-1.3266 0-.4942-.0448-.9364-.1343-1.3267s-.2292-.7197-.419-.9883c-.1897-.2721-.4314-.4798-.7251-.623-.2936-.1468-.6445-.2202-1.0527-.2202s-.7609.0734-1.0581.2202c-.2972.1432-.5425.3509-.7358.623-.1934.2686-.3366.598-.4297.9883-.0931.3903-.1397.8325-.1397 1.3267zm.8325-5.3711c0-.1934.0502-.333.1504-.419.1003-.0859.222-.1289.3653-.1289.1396 0 .2614.0448.3652.1343.1038.086.1558.2238.1558.4136 0 .1898-.052.3294-.1558.4189-.1038.0896-.2256.1343-.3652.1343-.1433 0-.265-.0447-.3653-.1343-.1002-.0895-.1504-.2291-.1504-.4189zm2.0142 0c0-.1934.0501-.333.1504-.419.1003-.0859.222-.1289.3652-.1289.0681 0 .1325.0108.1934.0323.0644.0215.1199.0555.1665.102.0465.043.0841.0985.1128.1665.0286.0681.043.1504.043.2471 0 .1898-.052.3294-.1558.4189-.1038.0896-.2238.1343-.3599.1343-.1432 0-.2649-.0447-.3652-.1343-.1003-.0895-.1504-.2291-.1504-.4189zM47.6245 68h-1.1333l-2.4224-3.749-.7465.6123V68h-.9991v-7.8525h.9991v3.9262l.6499-.9023 2.4277-3.0239h1.1226l-2.793 3.4213L47.6245 68zM42.3077 27.5769c0-1.8529-.6586-3.438-1.9757-4.7551-1.3171-1.3171-2.9021-1.9756-4.7551-1.9756-1.8529 0-3.438.6585-4.7551 1.9756-1.3171 1.3171-1.9756 2.9022-1.9756 4.7551 0 1.853.6585 3.438 1.9756 4.7551 1.3171 1.3171 2.9022 1.9757 4.7551 1.9757 1.853 0 3.438-.6586 4.7551-1.9757 1.3171-1.3171 1.9757-2.9021 1.9757-4.7551zM50 40.0769c0 .5209-.1903.9716-.5709 1.3522-.3806.3806-.8313.5709-1.3522.5709-.5408 0-.9916-.1903-1.3521-.5709l-5.1533-5.1382c-1.7929 1.242-3.7911 1.8629-5.9946 1.8629-1.4323 0-2.802-.2779-4.1091-.8338-1.307-.5559-2.4338-1.3071-3.3804-2.2536-.9465-.9465-1.6977-2.0733-2.2536-3.3804C25.2779 30.3789 25 29.0092 25 27.5769c0-1.4323.2779-2.802.8338-4.1091.5559-1.307 1.3071-2.4338 2.2536-3.3804.9466-.9465 2.0734-1.6977 3.3804-2.2536C32.7749 17.2779 34.1446 17 35.5769 17c1.4323 0 2.802.2779 4.1091.8338 1.3071.5559 2.4339 1.3071 3.3804 2.2536.9465.9466 1.6977 2.0734 2.2536 3.3804.5559 1.3071.8338 2.6768.8338 4.1091 0 2.2035-.6209 4.2017-1.8629 5.9946l5.1532 5.1533c.3706.3706.5559.8213.5559 1.3521z" fill="#000"/></svg>