<svg width="40" height="40" viewBox="0 0 40 40" fill="none" xmlns="http://www.w3.org/2000/svg"><rect x="17.561" width="4.87805" height="13.6585" rx="2.43902" fill="#C4C4C4"/><rect x="17.561" y="26.3415" width="4.87805" height="13.6585" rx="2.43902" fill="#C4C4C4"/><rect x="17.561" width="4.87805" height="13.6585" rx="2.43902" fill="#C4C4C4"/><rect x="17.561" y="26.3415" width="4.87805" height="13.6585" rx="2.43902" fill="#C4C4C4"/><rect y="22.439" width="4.87805" height="13.6585" rx="2.43902" transform="rotate(-90 0 22.439)" fill="#C4C4C4"/><rect x="26.3415" y="22.439" width="4.87805" height="13.6585" rx="2.43902" transform="rotate(-90 26.3415 22.439)" fill="#C4C4C4"/><rect x="4.13321" y="7.5825" width="4.87805" height="13.6585" rx="2.43902" transform="rotate(-45 4.13321 7.5825)" fill="#C4C4C4"/><rect x="22.7594" y="26.2087" width="4.87805" height="13.6585" rx="2.43902" transform="rotate(-45 22.7594 26.2087)" fill="#C4C4C4"/><rect x="32.4175" y="4.13321" width="4.87805" height="13.6585" rx="2.43902" transform="rotate(45 32.4175 4.13321)" fill="#C4C4C4"/><rect x="13.7913" y="22.7594" width="4.87805" height="13.6585" rx="2.43902" transform="rotate(45 13.7913 22.7594)" fill="#C4C4C4"/></svg>